<?xml version="1.0" encoding="utf-8"?>
<!-- Generator: Adobe Illustrator 27.0.0, SVG Export Plug-In . SVG Version: 6.00 Build 0)  -->
<svg version="1.1" id="Capa_1" xmlns="http://www.w3.org/2000/svg" xmlns:xlink="http://www.w3.org/1999/xlink" x="0px" y="0px"
	 viewBox="0 0 500 200" style="enable-background:new 0 0 500 200;" xml:space="preserve">
<style type="text/css">
	.st0{fill:#FFFFFF;}
</style>
<g>
	<g>
		<path class="st0" d="M61.1,161.5h47.4l31.7-35l21.5,35h57.5c0,0,6.8-29.2,7.7-32.9h32.8l0.2,0c7.8-0.3,22.3-0.8,32.8-10.4
			c3.7-2.9,6.9-8.7,8.9-15.2L288,161.5h98.6l6.1-26.4h-60.2c0.8-3.4,2.5-10.3,3-12.6h60.1l4.7-20.1H340c0.8-3.4,2.4-10.5,3-12.8
			h60.3l5.9-25.8h-98.6l-8.1,35.1c1.3-6.4,1.3-13.1-1.2-18.1c-3.3-7-10.9-15.6-28.5-16.9c-3.6-0.3-8.4-0.3-34.9-0.3l-34.2,0
			l26.4-25.2h-50.4L151,67.3l-16.3-28.8H86.1l36.2,57.4L61.1,161.5L61.1,161.5z M203.5,63.8l-6,25.8c22.3,0,68.4,0,68.7,0
			c6.1,0,7.9,2.8,7.9,6.3c0,3.6-2.4,6.6-8.1,6.6c-0.3,0-50.8,0-71.5,0l-5.8,25l-18.9-31.5L203.5,63.8L203.5,63.8z M442.4,134.9H490
			l-6.1,26.6h-86.2l22.6-97.7h38.6C458.9,63.8,443.9,128.8,442.4,134.9L442.4,134.9z M28.1,93.1c0,5-4,9-9,9c-5,0-9-4.1-9-9
			c0-5,4-9,9-9C24,84.1,28.1,88.1,28.1,93.1L28.1,93.1z M48.7,81.2c-6.6,0-11.9,5.3-11.9,11.9c0,6.6,5.3,11.9,11.9,11.9
			c6.6,0,11.9-5.3,11.9-11.9C60.7,86.5,55.3,81.2,48.7,81.2L48.7,81.2z M69.4,93.1c0-9.1,7.3-16.4,16.4-16.4
			c9.1,0,16.4,7.3,16.4,16.4c0,9.1-7.3,16.4-16.4,16.4C76.7,109.5,69.4,102.2,69.4,93.1L69.4,93.1z"/>
	</g>
</g>
</svg>
