<?xml version="1.0" encoding="utf-8"?>
<!-- Generator: Adobe Illustrator 27.0.0, SVG Export Plug-In . SVG Version: 6.00 Build 0)  -->
<svg version="1.1" id="Capa_1" xmlns="http://www.w3.org/2000/svg" xmlns:xlink="http://www.w3.org/1999/xlink" x="0px" y="0px"
	 viewBox="0 0 500 200" style="enable-background:new 0 0 500 200;" xml:space="preserve">
<style type="text/css">
	.st0{fill:#FFFFFF;}
</style>
<g>
	<g>
		<path class="st0" d="M108.5,180.9v-44.6h8.3v44.6H108.5z"/>
		<path class="st0" d="M151.5,136.3h8.3v44.6h-8.7l-6.5-15.9c-1.1-2.7-2.1-5.4-3.1-8.2c-0.9-2.8-1.9-6-2.9-9.5h-0.1
			c0.2,1.9,0.3,3.9,0.5,6.1c0.2,2.2,0.3,4.4,0.4,6.7c0.1,2.3,0.2,4.5,0.3,6.6c0.1,2.1,0.1,4.1,0.1,5.9v8.4h-8.3v-44.6h8.6l6.5,16.2
			c1.1,2.6,2.1,5.3,3,8.1c0.9,2.8,1.9,6,2.9,9.6h0.1c-0.2-2-0.3-4.1-0.4-6.2c-0.1-2.1-0.3-4.3-0.4-6.4c-0.1-2.1-0.2-4.3-0.3-6.4
			c-0.1-2.1-0.1-4.2-0.1-6.2V136.3z"/>
		<path class="st0" d="M174.1,155c0.1-2.9,0.3-5.5,0.5-7.9c0.3-2.4,0.9-4.5,1.9-6.3c1-1.8,2.4-3.1,4.3-4.1c1.9-1,4.5-1.5,7.9-1.5
			s6,0.5,7.9,1.5c1.9,1,3.3,2.4,4.3,4.1c1,1.8,1.6,3.9,1.9,6.3c0.3,2.4,0.5,5.1,0.5,7.9v6.4c0,3-0.1,5.7-0.4,8.2
			c-0.2,2.5-0.8,4.7-1.8,6.5c-1,1.8-2.4,3.3-4.4,4.3c-1.9,1-4.6,1.5-8,1.5c-3.4,0-6.1-0.5-8-1.5c-1.9-1-3.4-2.5-4.4-4.3
			c-1-1.8-1.6-4-1.8-6.5c-0.2-2.5-0.4-5.3-0.4-8.2V155z M182.7,165.5c0,0.9,0,1.9,0.1,3.1c0.1,1.1,0.3,2.2,0.7,3.2
			c0.4,1,1,1.8,1.8,2.5c0.8,0.7,1.9,1,3.4,1c1.5,0,2.6-0.3,3.4-1c0.8-0.7,1.4-1.5,1.8-2.6c0.4-1.1,0.6-2.2,0.7-3.4
			c0.1-1.2,0.1-2.4,0.1-3.4v-11.4c0-0.9,0-2-0.1-3.3c0-1.3-0.2-2.6-0.6-3.8c-0.4-1.2-1-2.3-1.8-3.1c-0.8-0.9-2-1.3-3.5-1.3
			c-1.6,0-2.9,0.4-3.7,1.3c-0.8,0.9-1.4,1.9-1.8,3.1c-0.3,1.2-0.5,2.4-0.5,3.7c0,1.3,0,2.3,0,3.2V165.5z"/>
		<path class="st0" d="M215.4,174.2l14.3-27.7c0.4-0.7,0.7-1.3,1-2c0.3-0.7,0.8-1.3,1.3-1.9c-0.6,0.1-1.1,0.1-1.6,0.1
			c-0.5,0-1.1,0-1.6,0h-12.5v-6.5h24.4v6.7l-14.3,27.7c-0.4,0.7-0.7,1.3-1,2c-0.3,0.7-0.8,1.3-1.3,1.9c0.6-0.1,1.1-0.1,1.6-0.1
			c0.5,0,1.1,0,1.6,0h14v6.5h-25.9V174.2z"/>
		<path class="st0" d="M253.7,180.9v-44.6h23.5v6.5H262v11.2h13.9v6.5H262v13.7h15.1v6.5H253.7z"/>
		<path class="st0" d="M287.2,136.3H315v6.5h-9.7v38.1H297v-38.1h-9.8V136.3z"/>
		<path class="st0" d="M326.4,180.9v-44.6h23.5v6.5h-15.1v11.2h13.9v6.5h-13.9v13.7h15.1v6.5H326.4z"/>
		<path class="st0" d="M363,180.9v-44.6h8.3v19.8h0.1c0.7-1.8,1.5-3.6,2.4-5.4c1-1.8,1.9-3.6,2.8-5.3l4.9-9.1h9.4l-11,19.2
			l11.5,25.5h-9.4l-7.9-17.6l-2.9,4.8v12.8H363z"/>
	</g>
	<g>
		<path class="st0" d="M244.9,110.4c-20.8-2.2-38.9-20.7-38.4-44.1c0.5-24,19.7-40.7,38.4-42.5c0,1.8,0,3.6,0,5.4
			c-1.1,0.2-2.2,0.4-3.2,0.6c-3.8,0.8-7.4,2.3-10.7,4.2c-7.5,4.4-12.9,10.7-16.3,18.7c-2.1,5-2.9,10.2-2.7,15.6
			c0.3,7.8,2.8,14.9,7.4,21.2c3.2,4.5,7.3,8,12.1,10.7c3.6,2,7.3,3.5,11.4,4.2c0.6,0.1,1.2,0.2,1.8,0.3c0.2,0,0.4,0.1,0.3,0.4
			c0,1.7,0,3.3,0,5C244.9,110.3,244.9,110.3,244.9,110.4z"/>
		<path class="st0" d="M255.1,110.4c0-1.8,0-3.6,0-5.4c0.8-0.1,1.5-0.3,2.3-0.4c5.8-1.1,11.1-3.6,15.8-7.2
			c6.4-4.9,10.8-11.3,13.2-19c1.5-4.7,1.9-9.5,1.6-14.3c-0.5-6.8-2.8-12.9-6.6-18.5c-3.4-5-7.9-9-13.2-11.9c-3.2-1.7-6.5-3-10.1-3.8
			c-0.9-0.2-1.8-0.3-2.7-0.5c-0.1,0-0.3-0.2-0.3-0.3c0-1.7,0-3.5,0-5.3c10.1,1.3,18.7,5.5,25.8,12.7c7.1,7.2,11.4,15.9,12.4,26
			C296,88.1,276.6,108.1,255.1,110.4z"/>
		<path class="st0" d="M247.3,18c1.8,0,3.6,0,5.5,0c0,32.7,0,65.3,0,98c-1.8,0-3.6,0-5.5,0C247.3,83.4,247.3,50.7,247.3,18z"/>
		<path class="st0" d="M244.9,62.8c0,0.2,0,0.4,0,0.7c0,2.7,0,5.4,0,8.1c0,0.2-0.1,0.5-0.2,0.7c-4.3,6.1-8.7,12.2-13,18.3
			c-0.1,0.1-0.3,0.3-0.4,0.3c-2,0-4.1,0-6.2,0C231.6,81.5,238.2,72.1,244.9,62.8C244.8,62.8,244.9,62.8,244.9,62.8z"/>
		<path class="st0" d="M274.9,43.9c-6.6,9.3-13.2,18.5-19.8,27.8c0-0.2,0-0.4,0-0.5c0-2.8,0-5.5,0-8.3c0-0.3,0.1-0.6,0.3-0.8
			c4.2-5.9,8.4-11.8,12.6-17.8c0.2-0.3,0.4-0.4,0.8-0.4c1.8,0,3.7,0,5.5,0C274.5,43.9,274.6,43.9,274.9,43.9z"/>
		<path class="st0" d="M255.1,90.8c0-1.8,0-3.6,0-5.3c6.6,0,13.2,0,19.8,0c0,1.8,0,3.6,0,5.3C268.4,90.8,261.8,90.8,255.1,90.8z"/>
		<path class="st0" d="M244.9,49.4c-5.8,0-11.5,0-17.3,0c0-1.8,0-3.5,0-5.3c0.1,0,0.3,0,0.4,0c5.5,0,10.9,0,16.4-0.1
			c0.4,0,0.5,0.1,0.5,0.5c0,1.5,0,3,0,4.4C244.9,49.1,244.9,49.2,244.9,49.4z"/>
		<path class="st0" d="M244.9,90.8c-3.3,0-6.6,0-10,0c3.3-4.7,6.6-9.3,10-14C244.9,81.6,244.9,86.2,244.9,90.8z"/>
		<path class="st0" d="M255.1,57.5c0-4.5,0-9,0-13.5c3.2,0,6.4,0,9.7,0C261.6,48.5,258.4,53,255.1,57.5
			C255.2,57.5,255.1,57.5,255.1,57.5z"/>
	</g>
</g>
</svg>
