<?xml version="1.0" encoding="utf-8"?>
<!-- Generator: Adobe Illustrator 28.3.0, SVG Export Plug-In . SVG Version: 6.00 Build 0)  -->
<svg version="1.1" id="Capa_1" xmlns="http://www.w3.org/2000/svg" xmlns:xlink="http://www.w3.org/1999/xlink" x="0px" y="0px"
	 viewBox="0 0 60 18" style="enable-background:new 0 0 60 18;" xml:space="preserve">
<style type="text/css">
	.st0{fill:#FFFFFF;}
</style>
<g>
	<g>
		<g>
			<g>
				<path class="st0" d="M31.6,1.5c3.5,0,7,0,10.5,0c0,0.3,0,0.6,0,0.8c-3.2,0-6.4,0-9.7,0c0,0.4,0,0.7,0,1.1c0,0.3,0.3,0.4,0.5,0.4
					c0.8,0,1.6,0,2.4,0c1.1,0,2.2,0,3.3,0c0.1,0,0.1,0,0.2,0c0,0.3,0,0.6,0,0.9c-0.1,0-0.1,0-0.2,0c-1.9,0-3.9,0-5.8,0
					c-0.8,0-1.3-0.5-1.3-1.3C31.6,2.8,31.6,2.2,31.6,1.5z"/>
				<path class="st0" d="M28.4,7.1c-1.4,0-2.7,0-4.1,0c0-0.3,0-0.6,0-0.8c1.1,0,2.1,0,3.2,0c0-0.4,0-0.7,0-1.1
					c0-0.3-0.3-0.4-0.6-0.4c-0.5,0-1.1,0-1.6,0c-1.4,0-2.8,0-4.1,0c0,0-0.1,0-0.1,0c0-0.3,0-0.6,0-0.9c0.1,0,0.2,0,0.3,0
					c1.9,0,3.7,0,5.6,0c0.9,0,1.4,0.5,1.4,1.4c0,0.5,0,1.1,0,1.6C28.4,7,28.4,7,28.4,7.1z"/>
				<path class="st0" d="M30.4,3.1c0-0.1,0-0.1,0-0.2c0-0.9-0.5-1.4-1.4-1.4c-1.9,0-9,0-10.8,0c-0.1,0-0.2,0-0.3,0
					c0,0.3,0,0.6,0,0.9c0,0,0.1,0,0.1,0c1.4,0,8,0,9.4,0c0.5,0,1.1,0,1.6,0c0.3,0,0.5,0.2,0.6,0.4c0,0.1,0,0.2,0,0.3v0.2
					c0,0.2,0,3.7,0,3.7h0.9L30.4,3.1L30.4,3.1z"/>
			</g>
		</g>
		<g>
			<path class="st0" d="M33.2,8.9c2.6,0,5.3,0,7.9,0c0,0.2,0,0.4,0,0.6c-2.4,0-4.8,0-7.2,0c0,0.3,0,0.5,0,0.8c0,0.2,0.2,0.3,0.4,0.3
				c0.6,0,1.2,0,1.8,0c0.8,0,1.7,0,2.5,0c0,0,0.1,0,0.1,0c0,0.2,0,0.4,0,0.6c0,0-0.1,0-0.1,0c-1.4,0-2.9,0-4.3,0c-0.6,0-1-0.4-1-1
				C33.2,9.8,33.2,9.3,33.2,8.9z"/>
			<path class="st0" d="M9.4,10c0-0.1,0-0.1,0-0.2c0-0.6-0.4-1-1-1c-1.3,0-6.4,0-7.7,0c-0.1,0-0.2,0-0.2,0c0,0.2,0,0.4,0,0.6
				c0,0,0.1,0,0.1,0c1,0,5.7,0,6.7,0c0.4,0,0.8,0,1.1,0c0.2,0,0.4,0.1,0.4,0.3c0,0.1,0,0.2,0,0.2v0.2c0,0.1,0,2.7,0,2.7h0.6L9.4,10
				L9.4,10z"/>
			<path class="st0" d="M11.9,9.6H10c-0.1,0-0.2,0-0.3-0.1C9.7,9.4,9.6,9.4,9.6,9.2c0-0.1,0-0.2,0.1-0.3C9.8,8.9,9.9,8.9,10,8.9h1.9
				L11.9,9.6z"/>
			<path class="st0" d="M13.9,12.8c-0.2,0-0.4-0.1-0.6-0.2c-0.2-0.2-0.2-0.3-0.2-0.6V9.6c0-0.2,0.1-0.4,0.2-0.6
				c0.2-0.2,0.3-0.2,0.6-0.2h2.8c0.1,0,0.2,0,0.3,0.1c0.1,0.1,0.1,0.2,0.1,0.3c0,0.1,0,0.2-0.1,0.3c-0.1,0.1-0.2,0.1-0.3,0.1h-2.8
				v0.8h2c0.1,0,0.2,0,0.3,0.1c0.1,0.1,0.1,0.2,0.1,0.3c0,0.1,0,0.2-0.1,0.3c-0.1,0.1-0.2,0.1-0.3,0.1h-2V12h2.8
				c0.1,0,0.2,0,0.3,0.1c0.1,0.1,0.1,0.2,0.1,0.3c0,0.1,0,0.2-0.1,0.3c-0.1,0.1-0.2,0.1-0.3,0.1H13.9z"/>
			<path class="st0" d="M19.1,12.8c-0.2,0-0.4-0.1-0.6-0.2c-0.2-0.2-0.2-0.3-0.2-0.6V9.6c0-0.2,0.1-0.4,0.2-0.6
				c0.2-0.2,0.3-0.2,0.6-0.2h3.6c0.1,0,0.2,0,0.3,0.1c0.1,0.1,0.1,0.2,0.1,0.3c0,0.1,0,0.2-0.1,0.3c-0.1,0.1-0.2,0.1-0.3,0.1h-3.6
				V12h3.6c0.1,0,0.2,0,0.3,0.1c0.1,0.1,0.1,0.2,0.1,0.3c0,0.1,0,0.2-0.1,0.3c-0.1,0.1-0.2,0.1-0.3,0.1H19.1z"/>
			<path class="st0" d="M24.8,12.8c-0.1,0-0.2,0-0.3-0.1c-0.1-0.1-0.1-0.2-0.1-0.3V9.2c0-0.1,0-0.2,0.1-0.3c0.1-0.1,0.2-0.1,0.3-0.1
				c0.1,0,0.2,0,0.3,0.1c0.1,0.1,0.1,0.2,0.1,0.3v1.2h3.2V9.2c0-0.1,0-0.2,0.1-0.3c0.1-0.1,0.2-0.1,0.3-0.1c0.1,0,0.2,0,0.3,0.1
				c0.1,0.1,0.1,0.2,0.1,0.3v3.2c0,0.1,0,0.2-0.1,0.3c-0.1,0.1-0.2,0.1-0.3,0.1c-0.1,0-0.2,0-0.3-0.1c-0.1-0.1-0.1-0.2-0.1-0.3v-1.2
				h-3.2v1.2c0,0.1,0,0.2-0.1,0.3C25,12.8,24.9,12.8,24.8,12.8z"/>
			<path class="st0" d="M33.2,12.8v-1.1c0-0.1,0-0.2,0.1-0.3c0.1-0.1,0.2-0.1,0.3-0.1c0.1,0,0.2,0,0.3,0.1c0.1,0.1,0.1,0.2,0.1,0.3
				v1.1"/>
			<path class="st0" d="M42.2,12.8c-0.1,0-0.2,0-0.3-0.1c-0.1-0.1-0.1-0.2-0.1-0.3c0-0.1,0-0.2,0.1-0.3c0.1-0.1,0.2-0.1,0.3-0.1h1.2
				V9.6h-1.2c-0.1,0-0.2,0-0.3-0.1c-0.1-0.1-0.1-0.2-0.1-0.3c0-0.1,0-0.2,0.1-0.3c0.1-0.1,0.2-0.1,0.3-0.1h4c0.1,0,0.2,0,0.3,0.1
				c0.1,0.1,0.1,0.2,0.1,0.3c0,0.1,0,0.2-0.1,0.3c-0.1,0.1-0.2,0.1-0.3,0.1h-2V12h2c0.1,0,0.2,0,0.3,0.1c0.1,0.1,0.1,0.2,0.1,0.3
				c0,0.1,0,0.2-0.1,0.3c-0.1,0.1-0.2,0.1-0.3,0.1H42.2z"/>
			<path class="st0" d="M48.6,12.8c-0.2,0-0.4-0.1-0.6-0.2c-0.2-0.2-0.2-0.3-0.2-0.6V9.2c0-0.1,0-0.2,0.1-0.3
				c0.1-0.1,0.2-0.1,0.3-0.1c0.1,0,0.2,0,0.3,0.1c0.1,0.1,0.1,0.2,0.1,0.3V12h3.6c0.1,0,0.2,0,0.3,0.1c0.1,0.1,0.1,0.2,0.1,0.3
				c0,0.1,0,0.2-0.1,0.3c-0.1,0.1-0.2,0.1-0.3,0.1H48.6z"/>
			<path class="st0" d="M54.3,12.8c-0.1,0-0.2,0-0.3-0.1c-0.1-0.1-0.1-0.2-0.1-0.3V9.6c0-0.2,0.1-0.4,0.2-0.6
				c0.2-0.2,0.3-0.2,0.6-0.2h0.8c0.2,0,0.4,0.1,0.6,0.2c0.2,0.2,0.2,0.3,0.2,0.6v1.6h0.8V9.6c0-0.2,0.1-0.4,0.2-0.6
				c0.2-0.2,0.3-0.2,0.6-0.2h0.8c0.2,0,0.4,0.1,0.6,0.2c0.2,0.2,0.2,0.3,0.2,0.6v2.8c0,0.1,0,0.2-0.1,0.3c-0.1,0.1-0.2,0.1-0.3,0.1
				c-0.1,0-0.2,0-0.3-0.1c-0.1-0.1-0.1-0.2-0.1-0.3V9.6h-0.8v1.6c0,0.2-0.1,0.4-0.2,0.6C57.5,12,57.3,12,57.1,12h-0.8
				c-0.2,0-0.4-0.1-0.6-0.2c-0.2-0.2-0.2-0.3-0.2-0.6V9.6h-0.8v2.8c0,0.1,0,0.2-0.1,0.3C54.5,12.8,54.4,12.8,54.3,12.8z"/>
			<path class="st0" d="M32,11.2h-1.5c-0.2,0-0.4-0.2-0.4-0.4v0c0-0.2,0.2-0.4,0.4-0.4H32c0.2,0,0.4,0.2,0.4,0.4v0
				C32.4,11.1,32.2,11.2,32,11.2z"/>
		</g>
	</g>
	<g>
		<path class="st0" d="M8.8,14.7h0.7c0.3,0,0.6,0.2,0.6,0.5c0,0.3-0.3,0.5-0.6,0.5H9.1v0.7H8.8V14.7z M9.1,14.9v0.7h0.4
			c0.2,0,0.3-0.1,0.3-0.3c0-0.2-0.1-0.3-0.3-0.3H9.1z"/>
		<path class="st0" d="M13.6,14.7h0.7c0.3,0,0.6,0.2,0.6,0.5c0,0.3-0.3,0.5-0.6,0.5h-0.4v0.7h-0.2V14.7z M13.9,14.9v0.7h0.4
			c0.2,0,0.3-0.1,0.3-0.3c0-0.2-0.1-0.3-0.3-0.3H13.9z"/>
		<path class="st0" d="M18.5,14.7h1.1v0.2h-0.9v0.6h0.9v0.2h-0.9v0.8h-0.2V14.7z"/>
		<path class="st0" d="M26.9,15.9c0-0.2,0.1-0.4,0.3-0.5c-0.1-0.1-0.1-0.2-0.1-0.3c0-0.3,0.2-0.5,0.5-0.5c0.2,0,0.4,0.1,0.5,0.3
			L27.9,15c-0.1-0.1-0.2-0.2-0.3-0.2c-0.2,0-0.3,0.1-0.3,0.3c0,0.1,0.1,0.2,0.2,0.3l1,1h-0.3L28,16.3c-0.1,0.1-0.3,0.2-0.5,0.2
			C27.2,16.5,26.9,16.3,26.9,15.9z M27.5,16.3c0.1,0,0.3-0.1,0.3-0.1l-0.5-0.5c-0.1,0.1-0.2,0.2-0.2,0.3
			C27.2,16.1,27.3,16.3,27.5,16.3z"/>
		<path class="st0" d="M35.6,14.7h0.2l0.4,1.4l0.4-1.4h0.2l0.4,1.4l0.4-1.4H38l-0.6,1.8h-0.2l-0.4-1.4l-0.4,1.4h-0.2L35.6,14.7z"/>
		<path class="st0" d="M41.5,14.7h0.7c0.3,0,0.6,0.2,0.6,0.5c0,0.3-0.2,0.5-0.5,0.5l0.6,0.8h-0.3l-0.6-0.8h-0.2v0.8h-0.2V14.7z
			 M41.8,14.9v0.6h0.4c0.2,0,0.3-0.1,0.3-0.3c0-0.2-0.1-0.3-0.3-0.3H41.8z"/>
		<path class="st0" d="M46.9,14.7h0.2l0.7,1.8h-0.3l-0.2-0.4h-0.8l-0.2,0.4h-0.3L46.9,14.7z M47.3,15.8L47,15.1l-0.3,0.8H47.3z"/>
		<path class="st0" d="M51.4,14.7h0.7c0.3,0,0.6,0.2,0.6,0.5c0,0.3-0.3,0.5-0.6,0.5h-0.4v0.7h-0.2V14.7z M51.6,14.9v0.7h0.4
			c0.2,0,0.3-0.1,0.3-0.3c0-0.2-0.1-0.3-0.3-0.3H51.6z"/>
	</g>
</g>
</svg>
