<?xml version="1.0" encoding="utf-8"?>
<!-- Generator: Adobe Illustrator 28.3.0, SVG Export Plug-In . SVG Version: 6.00 Build 0)  -->
<svg version="1.1" id="Capa_1" xmlns="http://www.w3.org/2000/svg" xmlns:xlink="http://www.w3.org/1999/xlink" x="0px" y="0px"
	 viewBox="0 0 60 15" style="enable-background:new 0 0 60 15;" xml:space="preserve">
<style type="text/css">
	.st0{fill:#002420;}
</style>
<g>
	<g>
		<g>
			<g>
				<path class="st0" d="M31.6,2.9c3.5,0,7,0,10.5,0c0,0.3,0,0.6,0,0.8c-3.2,0-6.4,0-9.7,0c0,0.4,0,0.7,0,1.1c0,0.3,0.3,0.4,0.5,0.4
					c0.8,0,1.6,0,2.4,0c1.1,0,2.2,0,3.3,0c0.1,0,0.1,0,0.2,0c0,0.3,0,0.6,0,0.9c-0.1,0-0.1,0-0.2,0c-1.9,0-3.9,0-5.8,0
					c-0.8,0-1.3-0.5-1.3-1.3C31.6,4.1,31.6,3.5,31.6,2.9z"/>
				<path class="st0" d="M28.4,8.4c-1.4,0-2.7,0-4.1,0c0-0.3,0-0.6,0-0.8c1.1,0,2.1,0,3.2,0c0-0.4,0-0.7,0-1.1
					c0-0.3-0.3-0.4-0.6-0.4c-0.5,0-1.1,0-1.6,0c-1.4,0-2.8,0-4.1,0h-0.1c0-0.3,0-0.6,0-0.9c0.1,0,0.2,0,0.3,0c1.9,0,3.7,0,5.6,0
					c0.9,0,1.4,0.5,1.4,1.4c0,0.5,0,1.1,0,1.6C28.4,8.3,28.4,8.3,28.4,8.4z"/>
				<path class="st0" d="M30.4,4.4c0-0.1,0-0.1,0-0.2c0-0.9-0.5-1.4-1.4-1.4c-1.9,0-9,0-10.8,0c-0.1,0-0.2,0-0.3,0
					c0,0.3,0,0.6,0,0.9H18c1.4,0,8,0,9.4,0c0.5,0,1.1,0,1.6,0c0.3,0,0.5,0.2,0.6,0.4c0,0.1,0,0.2,0,0.3v0.2c0,0.2,0,3.7,0,3.7h0.9
					L30.4,4.4L30.4,4.4z"/>
			</g>
		</g>
		<g>
			<path class="st0" d="M33.2,10.2c2.6,0,5.3,0,7.9,0c0,0.2,0,0.4,0,0.6c-2.4,0-4.8,0-7.2,0c0,0.3,0,0.5,0,0.8
				c0,0.2,0.2,0.3,0.4,0.3c0.6,0,1.2,0,1.8,0c0.8,0,1.7,0,2.5,0h0.1c0,0.2,0,0.4,0,0.6h-0.1c-1.4,0-2.9,0-4.3,0c-0.6,0-1-0.4-1-1
				C33.2,11.1,33.2,10.7,33.2,10.2z"/>
			<path class="st0" d="M9.4,11.3c0-0.1,0-0.1,0-0.2c0-0.6-0.4-1-1-1c-1.3,0-6.4,0-7.7,0c-0.1,0-0.2,0-0.2,0c0,0.2,0,0.4,0,0.6h0.1
				c1,0,5.7,0,6.7,0c0.4,0,0.8,0,1.1,0c0.2,0,0.4,0.1,0.4,0.3c0,0.1,0,0.2,0,0.2v0.2c0,0.1,0,2.7,0,2.7h0.6V11.3L9.4,11.3z"/>
			<path class="st0" d="M11.9,11H10c-0.1,0-0.2,0-0.3-0.1s-0.1-0.2-0.1-0.3s0-0.2,0.1-0.3s0.2-0.1,0.3-0.1h1.9V11z"/>
			<path class="st0" d="M13.9,14.2c-0.2,0-0.4-0.1-0.6-0.2c-0.2-0.2-0.2-0.3-0.2-0.6V11c0-0.2,0.1-0.4,0.2-0.6
				c0.2-0.2,0.3-0.2,0.6-0.2h2.8c0.1,0,0.2,0,0.3,0.1c0.1,0.1,0.1,0.2,0.1,0.3s0,0.2-0.1,0.3S16.8,11,16.7,11h-2.8v0.8h2
				c0.1,0,0.2,0,0.3,0.1s0.1,0.2,0.1,0.3s0,0.2-0.1,0.3s-0.2,0.1-0.3,0.1h-2v0.8h2.8c0.1,0,0.2,0,0.3,0.1c0.1,0.1,0.1,0.2,0.1,0.3
				s0,0.2-0.1,0.3s-0.2,0.1-0.3,0.1C16.7,14.2,13.9,14.2,13.9,14.2z"/>
			<path class="st0" d="M19.1,14.2c-0.2,0-0.4-0.1-0.6-0.2c-0.2-0.2-0.2-0.3-0.2-0.6V11c0-0.2,0.1-0.4,0.2-0.6
				c0.2-0.2,0.3-0.2,0.6-0.2h3.6c0.1,0,0.2,0,0.3,0.1c0.1,0.1,0.1,0.2,0.1,0.3s0,0.2-0.1,0.3S22.8,11,22.7,11h-3.6v2.4h3.6
				c0.1,0,0.2,0,0.3,0.1c0.1,0.1,0.1,0.2,0.1,0.3s0,0.2-0.1,0.3s-0.2,0.1-0.3,0.1C22.7,14.2,19.1,14.2,19.1,14.2z"/>
			<path class="st0" d="M24.8,14.2c-0.1,0-0.2,0-0.3-0.1c-0.1-0.1-0.1-0.2-0.1-0.3v-3.2c0-0.1,0-0.2,0.1-0.3s0.2-0.1,0.3-0.1
				c0.1,0,0.2,0,0.3,0.1c0.1,0.1,0.1,0.2,0.1,0.3v1.2h3.2v-1.2c0-0.1,0-0.2,0.1-0.3s0.2-0.1,0.3-0.1c0.1,0,0.2,0,0.3,0.1
				c0.1,0.1,0.1,0.2,0.1,0.3v3.2c0,0.1,0,0.2-0.1,0.3s-0.2,0.1-0.3,0.1c-0.1,0-0.2,0-0.3-0.1c-0.1-0.1-0.1-0.2-0.1-0.3v-1.2h-3.2
				v1.2c0,0.1,0,0.2-0.1,0.3C25,14.1,24.9,14.2,24.8,14.2z"/>
			<path class="st0" d="M33.2,14.2v-1.1c0-0.1,0-0.2,0.1-0.3s0.2-0.1,0.3-0.1s0.2,0,0.3,0.1C34,12.9,34,13,34,13.1v1.1"/>
			<path class="st0" d="M42.2,14.2c-0.1,0-0.2,0-0.3-0.1s-0.1-0.2-0.1-0.3s0-0.2,0.1-0.3s0.2-0.1,0.3-0.1h1.2V11h-1.2
				c-0.1,0-0.2,0-0.3-0.1s-0.1-0.2-0.1-0.3s0-0.2,0.1-0.3s0.2-0.1,0.3-0.1h4c0.1,0,0.2,0,0.3,0.1s0.1,0.2,0.1,0.3s0,0.2-0.1,0.3
				S46.3,11,46.2,11h-2v2.4h2c0.1,0,0.2,0,0.3,0.1s0.1,0.2,0.1,0.3s0,0.2-0.1,0.3s-0.2,0.1-0.3,0.1C46.2,14.2,42.2,14.2,42.2,14.2z"
				/>
			<path class="st0" d="M48.6,14.2c-0.2,0-0.4-0.1-0.6-0.2c-0.2-0.2-0.2-0.3-0.2-0.6v-2.8c0-0.1,0-0.2,0.1-0.3s0.2-0.1,0.3-0.1
				s0.2,0,0.3,0.1s0.1,0.2,0.1,0.3v2.8h3.6c0.1,0,0.2,0,0.3,0.1s0.1,0.2,0.1,0.3s0,0.2-0.1,0.3s-0.2,0.1-0.3,0.1
				C52.2,14.2,48.6,14.2,48.6,14.2z"/>
			<path class="st0" d="M54.3,14.2c-0.1,0-0.2,0-0.3-0.1s-0.1-0.2-0.1-0.3V11c0-0.2,0.1-0.4,0.2-0.6c0.2-0.2,0.3-0.2,0.6-0.2h0.8
				c0.2,0,0.4,0.1,0.6,0.2c0.2,0.2,0.2,0.3,0.2,0.6v1.6h0.8V11c0-0.2,0.1-0.4,0.2-0.6c0.2-0.2,0.3-0.2,0.6-0.2h0.8
				c0.2,0,0.4,0.1,0.6,0.2c0.2,0.2,0.2,0.3,0.2,0.6v2.8c0,0.1,0,0.2-0.1,0.3s-0.2,0.1-0.3,0.1s-0.2,0-0.3-0.1s-0.1-0.2-0.1-0.3V11
				h-0.8v1.6c0,0.2-0.1,0.4-0.2,0.6c-0.2,0.2-0.3,0.2-0.6,0.2h-0.8c-0.2,0-0.4-0.1-0.6-0.2c-0.2-0.2-0.2-0.3-0.2-0.6V11h-0.8v2.8
				c0,0.1,0,0.2-0.1,0.3C54.5,14.1,54.4,14.2,54.3,14.2z"/>
			<path class="st0" d="M32,12.6h-1.6c-0.2,0-0.3-0.1-0.3-0.3v-0.1c0-0.2,0.1-0.3,0.3-0.3H32c0.2,0,0.3,0.1,0.3,0.3v0.1
				C32.4,12.4,32.2,12.6,32,12.6z"/>
		</g>
	</g>
</g>
</svg>
