<?xml version="1.0" encoding="utf-8"?>
<!-- Generator: Adobe Illustrator 28.3.0, SVG Export Plug-In . SVG Version: 6.00 Build 0)  -->
<svg version="1.1" id="Layer_1" xmlns="http://www.w3.org/2000/svg" xmlns:xlink="http://www.w3.org/1999/xlink" x="0px" y="0px"
	 viewBox="0 0 200 76" style="enable-background:new 0 0 200 76;" xml:space="preserve">
<style type="text/css">
	.st0{fill-rule:evenodd;clip-rule:evenodd;fill:#333333;}
	.st1{opacity:0.75;}
	.st2{fill:#002420;}
	.st3{opacity:0.75;fill:#002420;}
	.st4{fill:#002420;stroke:#FFFFFF;stroke-width:0;stroke-linecap:round;stroke-linejoin:round;}
	.st5{fill:#002420;stroke:#F2F2F2;stroke-width:0;stroke-linecap:round;stroke-linejoin:round;}
</style>
<path class="st3" d="M70.9,65.6c11.3,0,17.8-3.7,21.7-11.5v10.5h15.1V31.2l8.3,33.4h13l8.2-33.4v33.4h14.9V11.7h-22.4l-7.4,30.8
	l-7.6-30.8H92.7v11.3c-3-8.1-9.1-12.5-21-12.5c-14.8,0-20.3,6.9-22,18.7h14.6c0.5-4.4,2.5-6.7,7.4-6.7c3.6,0,6.2,1.9,6.2,4.8
	c0,3.3-3.3,4.5-8.1,4.5h-3.3v10.2h3.1c4.7,0,7.6,1.8,7.6,5.6c0,3.5-2.8,5.8-6.5,5.8c-5.7,0-7.4-3.5-7.8-9.6H47.8
	C48.7,58.3,55.3,65.6,70.9,65.6z M92.7,42.5c-1.8-3.4-3-4.6-5.9-6.2c3.4-2.1,4-2.8,5.9-7V42.5z"/>
</svg>
