<?xml version="1.0" encoding="utf-8"?>
<!-- Generator: Adobe Illustrator 28.3.0, SVG Export Plug-In . SVG Version: 6.00 Build 0)  -->
<svg version="1.1" id="Layer_1" xmlns="http://www.w3.org/2000/svg" xmlns:xlink="http://www.w3.org/1999/xlink" x="0px" y="0px"
	 viewBox="0 0 200 76" style="enable-background:new 0 0 200 76;" xml:space="preserve">
<style type="text/css">
	.st0{fill-rule:evenodd;clip-rule:evenodd;fill:#333333;}
	.st1{opacity:0.75;}
	.st2{fill:#002420;}
	.st3{opacity:0.75;fill:#002420;}
	.st4{fill:#002420;stroke:#FFFFFF;stroke-width:0;stroke-linecap:round;stroke-linejoin:round;}
	.st5{fill:#002420;stroke:#F2F2F2;stroke-width:0;stroke-linecap:round;stroke-linejoin:round;}
</style>
<path class="st3" d="M163.9,63c0,0,0-46.9,0-49.7c0-2.8-2.6-2.4-2.6-2.4h-56.7l-4.8,9l-5.6-9.4c0,0-51.9-0.2-55.5,0
	c-3,0.2-2.6,2.6-2.6,2.6s0,45.5,0,49.3c0,3.8,2.6,3,2.6,3h50.7L100,47.8l12,17.8c0,0,45.5,0,48.9,0S163.9,63,163.9,63z M120.4,13.3
	h9.8V51h-9.8V13.3z M63.1,13.3h17.2v9.4h-7.6v4.2h6.8v10.2h-6.8v3.4h7.8V51H62.9L63.1,13.3z M38.7,15.1c0,0,0-1.8,1.8-1.8
	c1.8,0,7,0,7,0v13.6h4.2V13.3h9V51h-8.8V37.3h-4.6V51h-8.6V15.1z M159.9,63.4c-1.8,0-46.1,0-46.1,0l-13.6-19.8L88,63.2H40.7
	c0,0-1.8-0.4-2-2.2v-7.2h43.5L94,34.5l-12.2-21h11.4l6.6,10.8l6.4-11H118l-12.2,21.4l11.6,18.8h44.1v8.2
	C161.5,61.6,161.7,63.4,159.9,63.4z M161.7,23.3h-18.8c0.8,3.8,10,5.6,10,5.6c8.4,2.6,8.8,4.8,8.8,4.8v17.6h-29.4V40.1h18.6
	c1-3.4-10.8-5.2-14.6-6.6c-3.8-1.4-3.8-3.2-3.8-3.2s0-13.2,0-14.8c0-1.6,2-2.2,2-2.2s23,0,25,0c2,0,2.2,2,2.2,2V23.3z"/>
</svg>
