<?xml version="1.0" encoding="utf-8"?>
<!-- Generator: Adobe Illustrator 28.3.0, SVG Export Plug-In . SVG Version: 6.00 Build 0)  -->
<svg version="1.1" id="Layer_1" xmlns="http://www.w3.org/2000/svg" xmlns:xlink="http://www.w3.org/1999/xlink" x="0px" y="0px"
	 viewBox="0 0 200 76" style="enable-background:new 0 0 200 76;" xml:space="preserve">
<style type="text/css">
	.st0{fill-rule:evenodd;clip-rule:evenodd;fill:#333333;}
	.st1{opacity:0.75;}
	.st2{fill:#002420;}
	.st3{opacity:0.75;fill:#002420;}
	.st4{fill:#002420;stroke:#FFFFFF;stroke-width:0;stroke-linecap:round;stroke-linejoin:round;}
	.st5{fill:#002420;stroke:#F2F2F2;stroke-width:0;stroke-linecap:round;stroke-linejoin:round;}
</style>
<g class="st1">
	<path class="st2" d="M111.7,22.6c7.7,0,14.1,4.7,16.5,11.3h-33C97.7,27.3,104,22.6,111.7,22.6z M111.7,10.4L111.7,10.4
		c-2.8,5.7,2.1,6.1-0.9,10.8c-3.1,0.1-5.9,1-8.4,2.3c0.5-5.8-4-3.7-4.3-10.1C102.2,11.5,106.8,10.4,111.7,10.4L111.7,10.4z
		 M113.3,10.4c4.8,0.2,9.3,1.5,13.1,3.7c-5.5,3.5-1.3,6.3-6.5,8.9c-2.3-1.1-4.9-1.7-7.6-1.8C115.4,16.5,110.5,16.1,113.3,10.4
		L113.3,10.4z M127.8,14.9c4,2.5,7.3,5.8,9.7,9.8c-6.8,0.6-4.4,4.9-9.8,5.1c-1.6-2.5-3.8-4.6-6.3-6
		C126.5,21.2,122.4,18.4,127.8,14.9L127.8,14.9z M138.3,26c1.3,2.5,2.3,5.1,2.9,7.8h-11.5c-0.3-0.9-0.7-1.8-1.2-2.7
		C134,31,131.6,26.6,138.3,26z M101.1,24.4c-2.4,1.6-4.4,3.8-5.9,6.3c-3-5.8-5.5-1.4-9.3-6c2.7-4.4,6.4-8,10.9-10.4
		C97.1,20.6,101.6,18.5,101.1,24.4L101.1,24.4z M94.5,32c-0.3,0.6-0.5,1.2-0.7,1.8H82.3c0.6-2.8,1.6-5.4,2.9-7.9
		C89,30.7,91.5,26.3,94.5,32z"/>
	<g>
		<path class="st2" d="M141,55.8h-0.4v0.8h0.4c0.2,0,0.4,0,0.5-0.1c0.1-0.1,0.1-0.2,0.1-0.3c0-0.1,0-0.2-0.1-0.3
			C141.4,55.9,141.3,55.8,141,55.8z"/>
		<path class="st2" d="M142.4,55.5c-0.2-0.2-0.4-0.3-0.6-0.4c-0.2-0.1-0.5-0.1-0.7-0.1c-0.2,0-0.5,0-0.7,0.1
			c-0.2,0.1-0.4,0.2-0.6,0.4c-0.2,0.2-0.3,0.4-0.4,0.6c-0.2,0.4-0.2,0.9,0,1.3c0.1,0.2,0.2,0.4,0.4,0.6c0.2,0.2,0.4,0.3,0.6,0.4
			c0.2,0.1,0.4,0.1,0.7,0.1c0.2,0,0.5,0,0.7-0.1c0.2-0.1,0.4-0.2,0.6-0.4c0.3-0.3,0.5-0.8,0.5-1.2c0-0.2,0-0.5-0.1-0.7
			C142.6,55.9,142.5,55.7,142.4,55.5z M142.1,57.9h-0.5l-0.5-1h-0.4v1h-0.4v-2.3h0.9v0c0.3,0,0.6,0.1,0.7,0.2
			c0.2,0.1,0.2,0.3,0.2,0.5c0,0.2,0,0.3-0.1,0.4c-0.1,0.1-0.2,0.2-0.4,0.2L142.1,57.9z"/>
		<path class="st2" d="M108.2,57.1V43.5c0-1.5,0.6-2.7,2.1-2.7c1.3,0,2,0.8,2,2.2c0,4.7,0,9.5,0,14.2h3.7l0-15.5
			c0-2.3-1.6-4.2-3.9-4.2c-2.3,0-3.7,1.5-4.4,2.5c-0.6-1.4-1.7-2.5-3.2-2.5c-2.4,0-3.6,1.7-4.2,2.7v-2.4h-3.7h0v19.4h3.7V44.7
			c0-0.8,0-2,0.4-2.7c1.3-2.3,3.8-1.1,3.8,1.6v13.6H108.2z"/>
		<path class="st2" d="M101.2,60h-2v5.4h2c1.6,0,2.6-1.2,2.6-2.7C103.8,61.3,102.7,60,101.2,60z M101.2,64.6h-1v-3.7h1
			c0.9,0,1.6,0.8,1.6,1.8C102.8,63.7,102.1,64.6,101.2,64.6z"/>
		<polygon class="st2" points="88.2,64 87.2,60 86,60 84.8,63.9 83.8,59.8 82.8,60.1 82.8,60.1 84.2,65.5 85.3,65.5 86.6,61.5 
			87.6,65.5 88.9,65.5 90.4,60.2 89.5,59.8 		"/>
		<polygon class="st2" points="60.9,28 56.9,28 56.9,57.1 67.4,57.1 67.4,53.6 60.9,53.6 		"/>
		<path class="st2" d="M96.9,64c-0.8-1.4-1.7-2.8-2.5-4.1l-1,0.4v5.2h1v-4c0.8,1.4,1.7,2.7,2.5,4.1l1-0.4V60h-1V64z"/>
		<path class="st2" d="M86.8,57.5h1.5c2.8,0,5.1-2.3,5.1-5.1V37.7h-3.7v14.4c0,1.2-0.9,2.1-2.1,2.1c-1.2,0-2.1-0.9-2.1-2.1V37.7
			h-3.7v14.7C81.7,55.2,84,57.5,86.8,57.5z"/>
		<rect x="91.2" y="60" class="st2" width="1" height="5.4"/>
		<polygon class="st2" points="73.6,28 69.6,28 69.6,57.1 80.1,57.1 80.1,53.6 73.6,53.6 		"/>
		<polygon class="st2" points="128.8,60 127.8,60 127.8,65.5 130.9,65.5 130.9,64.6 128.8,64.6 		"/>
		<polygon class="st2" points="136.2,60 134.8,64.7 133.5,60 132.4,60 131.6,65.5 132.4,65.6 133,61.3 134.3,65.6 135.4,65.6 
			136.7,61.3 137.2,65.6 138.1,65.5 137.3,60 		"/>
		<path class="st2" d="M107.5,59.8c-1.6,0-2.9,1.3-2.9,2.9c0,1.6,1.3,2.9,2.9,2.9c1.6,0,2.9-1.3,2.9-2.9
			C110.4,61.1,109.1,59.8,107.5,59.8z M107.5,64.7c-1.1,0-1.9-0.9-1.9-2c0-1.1,0.9-2,1.9-2c1.1,0,1.9,0.9,1.9,2
			C109.5,63.8,108.6,64.7,107.5,64.7z"/>
		<path class="st2" d="M142.1,56.2c0-0.2-0.1-0.4-0.2-0.5c-0.2-0.1-0.4-0.2-0.7-0.2v0h-0.9v2.3h0.4v-1h0.4l0.5,1h0.5l-0.5-1.1
			c0.2,0,0.3-0.1,0.4-0.2C142,56.5,142.1,56.4,142.1,56.2z M141.5,56.5c-0.1,0.1-0.2,0.1-0.5,0.1h-0.4v-0.8h0.4c0.2,0,0.4,0,0.5,0.1
			c0.1,0.1,0.1,0.2,0.1,0.3C141.6,56.4,141.6,56.5,141.5,56.5z"/>
		<path class="st2" d="M142.5,55.3c-0.4-0.4-0.9-0.6-1.5-0.6c-0.3,0-0.5,0-0.8,0.1c-0.2,0.1-0.5,0.2-0.6,0.4
			c-0.2,0.2-0.4,0.4-0.5,0.7c-0.1,0.3-0.2,0.5-0.2,0.8c0,0.3,0.1,0.5,0.2,0.8c0.1,0.2,0.3,0.5,0.4,0.7c0.2,0.2,0.4,0.4,0.7,0.5
			c0.2,0.1,0.5,0.2,0.8,0.2c0.3,0,0.5-0.1,0.8-0.2c0.3-0.1,0.5-0.3,0.7-0.5c0.2-0.2,0.3-0.4,0.4-0.7c0.1-0.2,0.2-0.5,0.2-0.8
			C143.1,56.2,142.9,55.7,142.5,55.3z M142.3,58c-0.2,0.2-0.4,0.3-0.6,0.4c-0.2,0.1-0.4,0.1-0.7,0.1c-0.2,0-0.5,0-0.7-0.1
			c-0.2-0.1-0.4-0.2-0.6-0.4c-0.2-0.2-0.3-0.4-0.4-0.6c-0.2-0.4-0.2-0.9,0-1.3c0.1-0.2,0.2-0.4,0.4-0.6c0.2-0.2,0.3-0.3,0.6-0.4
			c0.2-0.1,0.4-0.1,0.7-0.1c0.2,0,0.5,0,0.7,0.1c0.2,0.1,0.4,0.2,0.6,0.4c0.2,0.2,0.3,0.4,0.4,0.6c0.1,0.2,0.1,0.4,0.1,0.7
			C142.9,57.2,142.7,57.7,142.3,58z"/>
		<path class="st2" d="M141.8,41.3v-3.6h0c-2.4,0-3.6,1.4-4.2,2.4v-2.4h-3.7h0v19.4h3.7V45.5c0-0.8,0-2,0.4-2.7
			C138.8,41.3,140.6,40.8,141.8,41.3z"/>
		<polygon class="st2" points="121.6,60 121.6,65.5 122.6,65.5 122.6,63.2 124.6,63.2 124.6,62.4 122.6,62.4 122.6,60.9 124.6,60.9 
			124.6,60 121.6,60 		"/>
		<polygon class="st2" points="116.4,64 115.4,60 114.2,60 113,63.9 112,59.8 111,60.1 111,60.1 112.4,65.5 113.5,65.5 114.8,61.5 
			115.8,65.5 117.1,65.5 118.6,60.2 117.7,59.8 		"/>
		<path class="st2" d="M130.7,57.1V37.7H127v2.1c-0.9-1.5-2.2-2.4-3.6-2.4c-2.3,0-4.6,2.5-4.6,7.3v4.5c0,5.2,1.5,8.3,4.6,8.3
			c1.8,0,2.9-1.1,3.6-2.8v2.4H130.7z M124.8,54.2c-1.5,0-2.2-2-2.2-5.4v-3c0-3.2,1.1-4.8,2.2-4.8c1.7,0,2.2,2.7,2.2,4.1v3.7
			C127,50.2,126.9,54.2,124.8,54.2z"/>
		<rect x="125.5" y="60" class="st2" width="1" height="5.4"/>
	</g>
</g>
</svg>
