<?xml version="1.0" encoding="utf-8"?>
<!-- Generator: Adobe Illustrator 28.3.0, SVG Export Plug-In . SVG Version: 6.00 Build 0)  -->
<svg version="1.1" id="Layer_1" xmlns="http://www.w3.org/2000/svg" xmlns:xlink="http://www.w3.org/1999/xlink" x="0px" y="0px"
	 viewBox="0 0 200 76" style="enable-background:new 0 0 200 76;" xml:space="preserve">
<style type="text/css">
	.st0{opacity:0.75;}
	.st1{fill:#333333;}
	.st2{opacity:0.75;fill:#333333;}
	.st3{fill:#333333;stroke:#FFFFFF;stroke-width:0;stroke-linecap:round;stroke-linejoin:round;}
	.st4{fill:#333333;stroke:#F2F2F2;stroke-width:0;stroke-linecap:round;stroke-linejoin:round;}
</style>
<g class="st0">
	<g>
		<polygon class="st1" points="139.5,52.5 143.1,52.5 143.1,65.2 139.5,65.2 139.5,52.5 		"/>
		<polygon class="st1" points="107.9,35.7 119.3,35.7 119.3,38.4 111.3,38.4 111.3,40.6 118.6,40.6 118.6,43.2 111.3,43.2 
			111.3,45.7 119.3,45.7 119.3,48.4 107.9,48.4 107.9,35.7 		"/>
		<path class="st1" d="M154.1,55.3v-2.9c-1-0.2-2.3-0.4-3.8-0.4c-2.1-0.1-5.7,0.5-5.5,4.2c0.2,2.3,1.8,2.9,4.1,3.7
			c2,0.6,2.4,0.8,2.3,1.7c-0.2,0.9-1.3,1-2,1c-1.3,0-3.2-0.3-4.4-0.7V65c0,0,2.4,0.5,4.6,0.5c1.6,0,5.3-0.5,5.6-4
			c0.1-2.3-1.3-3.1-2.4-3.6c-2.8-1.2-3.5-1.1-3.9-1.6c-0.4-1,0.7-1.4,2.1-1.3C151.1,55,152,55,154.1,55.3L154.1,55.3z"/>
		<path class="st1" d="M117.6,65.2h4.5V52.5h-3.4c0,0,0,5.2,0,8.5l-5.2-8.5H109v12.7h3.4c0,0,0-5.2,0-8.6L117.6,65.2L117.6,65.2z"/>
		<path class="st1" d="M133.8,48.4l-4.2-5.2c1.3,0.1,3.3-1,3.4-3.4c0.1-3.2-1.5-4.1-4-4.1h-8.2v12.7h3.5v-10h3.4
			c0.7,0,1.8,0.1,1.8,1.5c0,1.3-0.9,1.5-1.8,1.5h-3l4.8,7H133.8L133.8,48.4z"/>
		<polygon class="st1" points="96.1,52.5 107.5,52.5 107.5,55.2 99.5,55.2 99.5,57.5 106.8,57.5 106.8,60 99.5,60 99.5,62.5 
			107.5,62.5 107.5,65.2 96.1,65.2 96.1,52.5 		"/>
		<path class="st1" d="M132.8,65.2h4.5V52.5h-3.4c0,0,0,5.2,0,8.5l-5.2-8.5h-4.5v12.7h3.5c0,0,0-5.2,0-8.6L132.8,65.2L132.8,65.2z"
			/>
		<path class="st1" d="M180.5,65.2h4.5V52.5h-3.4c0,0,0,5.2,0,8.5l-5.2-8.5h-4.5v12.7h3.4c0,0,0-5.2,0-8.6L180.5,65.2L180.5,65.2z"
			/>
		<path class="st1" d="M139.3,40.5l-2.9-4.8h-4l5.7,8.2v4.5h3.4v-4.5l5.8-8.2h-4l-3,4.8c-0.3,0.4-0.4,0.9-0.4,0.9
			S139.6,40.9,139.3,40.5L139.3,40.5z"/>
		<path class="st1" d="M163.1,65.6c-4.7,0.1-7.4-2.6-7.4-6.8c0-4.3,2.6-6.9,7.3-6.8c4.8-0.1,7.4,2.6,7.4,6.8
			C170.5,63,167.8,65.7,163.1,65.6L163.1,65.6z M163.1,62.5c2.6,0,3.9-1.5,3.9-3.8c0-2.3-1.3-3.8-3.9-3.8c-2.5,0-3.9,1.5-3.9,3.8
			C159.2,61.1,160.5,62.5,163.1,62.5L163.1,62.5z"/>
		<path class="st1" d="M88.9,52.5c4.5,0,5.9,3.7,5.9,6.4c-0.1,2.9-1.4,6.3-5.8,6.3h-7.8V52.5H88.9L88.9,52.5z M91.3,58.9
			c0-2.7-1.6-3.5-3.7-3.5h-2.9v7h2.9C89.6,62.4,91.3,61.8,91.3,58.9L91.3,58.9z"/>
		<path class="st1" d="M85.6,45.7l-1.1,2.7h-3.8l5.3-12.7h4.5l5.3,12.7h-3.8L91,45.7H85.6L85.6,45.7z M88.8,39.9
			c0,0-0.2-0.7-0.4-1.3c-0.2,0.7-0.4,1.3-0.4,1.3l-1.3,3.3H90L88.8,39.9L88.8,39.9z"/>
		<path class="st1" d="M15,55.8c0-1.5,0.3-2.3,0.8-3.7c0.4-0.7,0.1-0.3,1.2-2.3c1.9-3.4,16.4-29.3,16.4-29.3c1-1.7,2.4-4.3,2.4-4.3
			c2-3.5,3.9-5,6.4-5.7c0.2-0.1,0.5-0.1,0.7-0.2h4.1c1,0.2,2,0.6,2.8,1.1c1.5,0.9,2.9,2.6,3.9,4.3c0.3,0.5,0.3,0.4,1.5,2.6l18,31.6
			c1.5,2.6,2.4,4.8,1.6,8.1c-1.3,4.6-5,6.8-9.8,7.1c-1.4,0.1-1,0.1-2.1,0.1c-7.1,0-32,0-35.6,0c-2.4,0-1,0-2-0.1
			C18.4,65.1,15,60.2,15,55.8L15,55.8z M36.1,46l13.1-23c1-1.9,1.1-3.3,0.8-4.6c-0.8-2.8-3.7-4.5-6.6-3.6c-1.3,0.4-2.3,1.1-3.4,3
			L23.8,46.5c1.1-0.4,2.3-0.5,3.2-0.5h0.5l15.1-26.8c0.5-0.9,1-1.3,1.5-1.5c1.4-0.4,2.6,0.4,2.9,1.6c0.1,0.6,0,1.3-0.4,2.1L32.6,46
			H36.1L36.1,46z M41.2,46h7.7l-3.9-6.7L41.2,46L41.2,46z M47.5,34.9l12.9,22.6c0.9,1.4,1.8,2.5,3.4,3c2.9,0.9,5.9-0.9,6.6-3.8
			c0.4-1.8-0.1-3.1-0.8-4.3L53.1,23.6c-0.2,1.6-0.8,2.7-1.3,3.8L67,54c0.5,1,0.7,1.6,0.5,2.2c-0.3,1.2-1.7,2-2.8,1.6
			c-0.5-0.2-1-0.5-1.6-1.6L49.2,31.8L47.5,34.9L47.5,34.9z M57.9,60.8c-1.3-1.1-1.8-1.9-2.5-3H24.7c-0.6,0-1.2-0.2-1.6-0.6
			c-0.9-0.9-1-2.3-0.1-3.2c0.4-0.4,1.2-0.7,1.7-0.7h28.2l-1.8-3H25c-1.7,0-3.1,0.6-4.1,1.6c-2.1,2-2.1,5.4,0.2,7.6
			c1.4,1.2,2.5,1.3,4.1,1.3H57.9L57.9,60.8z"/>
		<polygon class="st1" points="100.2,44.6 96.7,35.7 92.9,35.7 98.3,48.4 102.1,48.4 107.5,35.7 103.7,35.7 100.2,44.6 		"/>
	</g>
</g>
</svg>
