<?xml version="1.0" encoding="utf-8"?>
<!-- Generator: Adobe Illustrator 28.3.0, SVG Export Plug-In . SVG Version: 6.00 Build 0)  -->
<svg version="1.1" id="Layer_1" xmlns="http://www.w3.org/2000/svg" xmlns:xlink="http://www.w3.org/1999/xlink" x="0px" y="0px"
	 viewBox="0 0 200 76" style="enable-background:new 0 0 200 76;" xml:space="preserve">
<style type="text/css">
	.st0{fill-rule:evenodd;clip-rule:evenodd;fill:#333333;}
	.st1{opacity:0.75;}
	.st2{fill:#002420;}
	.st3{opacity:0.75;fill:#002420;}
	.st4{fill:#002420;stroke:#FFFFFF;stroke-width:0;stroke-linecap:round;stroke-linejoin:round;}
	.st5{fill:#002420;stroke:#F2F2F2;stroke-width:0;stroke-linecap:round;stroke-linejoin:round;}
</style>
<g class="st1">
	<path class="st2" d="M15,51.8l3.6-27.6h5.8l-3,22.7H31l-0.6,4.9H15z"/>
	<path class="st2" d="M31.3,51.8l14.3-27.6h6.3l6.6,27.6h-6.1l-1.2-5.9H40.7l-3,5.9H31.3z M50.2,41.3l-1.3-6.5
		c-0.1-0.7-0.2-1.5-0.3-2.4c-0.1-1-0.2-2.1-0.3-3.4c-0.3,1-0.6,1.9-0.9,2.8c-0.3,0.9-0.6,1.7-1,2.4L43,41.3H50.2z"/>
	<path class="st2" d="M59.8,51.8l7.8-27.6h6.1l2.6,12.6c0.2,1,0.4,2.1,0.5,3.3c0.1,1.2,0.3,2.6,0.3,4c0.3-1.1,0.6-2.2,1-3.3
		c0.4-1.1,0.8-2.1,1.3-3.1l6.2-13.6h6.3l0.4,27.6H87l0.2-12.9c0-1.4,0.1-2.9,0.2-4.4c0.1-1.5,0.2-3,0.3-4.5c-0.5,1.4-1,2.8-1.5,4.1
		c-0.5,1.3-1,2.4-1.5,3.5l-6.8,14.2h-3.1l-3.4-15.5c-0.2-0.8-0.3-1.7-0.5-2.9c-0.1-1.1-0.3-2.4-0.4-3.7c-0.3,1.7-0.5,3-0.7,4
		c-0.2,1-0.3,1.7-0.5,2.1l-3.9,16H59.8z"/>
	<path class="st2" d="M96.6,51.8l3.6-27.6h5.8l-3.6,27.6H96.6z"/>
	<path class="st2" d="M108.5,51.8l3.6-27.6h6l8.6,14.3c0.9,1.6,1.6,2.7,2,3.5c0.4,0.8,0.7,1.5,0.9,2.2c0-1.3,0.1-2.5,0.2-3.5
		c0.1-1,0.2-1.8,0.2-2.4l1.9-14.2h5.4l-3.7,27.6h-5.6l-9.5-16.1c-0.6-1-1.1-1.8-1.4-2.6s-0.7-1.5-0.9-2.1v0.9c0,0.9,0,1.9-0.1,2.7
		s-0.1,1.7-0.2,2.5l-2.1,14.7H108.5z"/>
	<path class="st2" d="M139.9,51.8l3.6-27.6h16.4l-0.6,4.9h-10.7l-0.8,6.2h10.7l-0.6,4.8h-10.7l-0.9,6.9H157l-0.7,4.9H139.9z"/>
	<path class="st2" d="M158.5,51.8l10.1-14.3l-6-13.3h6.5l2.3,6.2c0.1,0.3,0.2,0.7,0.4,1.2c0.2,0.5,0.3,1.2,0.5,1.9
		c0.1-0.4,0.3-0.8,0.5-1.3c0.2-0.4,0.5-0.9,0.9-1.5l4.4-6.5h6.8l-9.7,13.3l6.3,14.4h-6.4l-2.8-7.3c-0.2-0.4-0.3-0.8-0.4-1.3
		c-0.1-0.5-0.2-0.9-0.3-1.4c-0.2,0.5-0.5,0.9-0.7,1.3c-0.2,0.4-0.4,0.7-0.6,1l-5.1,7.7H158.5z"/>
</g>
</svg>
