<?xml version="1.0" encoding="utf-8"?>
<!-- Generator: Adobe Illustrator 28.3.0, SVG Export Plug-In . SVG Version: 6.00 Build 0)  -->
<svg version="1.1" id="Layer_1" xmlns="http://www.w3.org/2000/svg" xmlns:xlink="http://www.w3.org/1999/xlink" x="0px" y="0px"
	 viewBox="0 0 200 76" style="enable-background:new 0 0 200 76;" xml:space="preserve">
<style type="text/css">
	.st0{fill-rule:evenodd;clip-rule:evenodd;fill:#333333;}
	.st1{opacity:0.75;}
	.st2{fill:#002420;}
	.st3{opacity:0.75;fill:#002420;}
	.st4{fill:#002420;stroke:#FFFFFF;stroke-width:0;stroke-linecap:round;stroke-linejoin:round;}
	.st5{fill:#002420;stroke:#F2F2F2;stroke-width:0;stroke-linecap:round;stroke-linejoin:round;}
</style>
<g class="st1">
	<path class="st2" d="M41.5,48.3c-0.1,0-0.2,0-0.4,0l0,0C41.2,48.3,41.4,48.3,41.5,48.3z"/>
	<path class="st2" d="M50.6,49.4c-0.1-0.2-0.1-0.3-0.2-0.6c0,0,0-0.1,0-0.1c0,0,0,0.1,0,0.1C50.4,49.1,50.5,49.2,50.6,49.4z"/>
	<path class="st2" d="M36.7,38.9c-0.1,0-0.1,0-0.2,0C36.6,38.9,36.7,38.9,36.7,38.9z"/>
	<path class="st2" d="M48.7,40.9C48.7,40.9,48.7,40.9,48.7,40.9C48.7,40.9,48.7,40.9,48.7,40.9z"/>
	<path class="st2" d="M21.2,48.8c0.8-2,1.6-4,2.4-6C22.9,44.9,22,46.8,21.2,48.8z"/>
	<path class="st2" d="M40.4,34.7C40.4,34.7,40.4,34.7,40.4,34.7c-0.3,0.7-0.5,1.3-0.8,2C39.9,36.1,40.2,35.4,40.4,34.7z"/>
	<path class="st2" d="M55.2,38.9c0,0.1-0.1,0.2-0.1,0.3C55.1,39.1,55.2,39,55.2,38.9z"/>
	<path class="st2" d="M43.9,41.3c0.1-0.3,0.4-0.4,0.8-0.4c1.3,0,2.7,0,4,0c-1.3,0-2.7,0-4,0C44.3,40.9,44.1,41,43.9,41.3z"/>
	<path class="st2" d="M55.7,37.7c-0.1,0.2-0.1,0.3-0.2,0.5C55.5,38,55.6,37.8,55.7,37.7H39.3h0H55.7z"/>
	<path class="st2" d="M43.5,42.5c0.1-0.4,0.3-0.7,0.4-1c0-0.1,0-0.1,0.1-0.1c0,0,0,0.1-0.1,0.1C43.7,41.8,43.6,42.2,43.5,42.5z"/>
	<path class="st2" d="M49.5,46c-2.3,0-4.6,0-6.9,0c-0.5,0-0.7,0.1-0.9,0.6c-0.2,0.5-0.4,1-0.6,1.7c0.2-0.6,0.5-1.1,0.6-1.7
		c0.1-0.5,0.4-0.6,0.9-0.6C44.9,46.1,47.2,46.1,49.5,46c0.2,0,0.5-0.1,0.6-0.2C50,46,49.7,46,49.5,46z"/>
	<path class="st2" d="M32.9,40.9c-1.6,3.9-3.2,7.9-4.8,11.8c-0.1,0.3-0.3,0.5-0.6,0.6c0.3-0.1,0.5-0.2,0.6-0.6
		C29.7,48.8,31.3,44.9,32.9,40.9c0.1-0.2,0.1-0.3,0.2-0.4C33,40.6,33,40.7,32.9,40.9z"/>
	<path class="st2" d="M105,52.5c-0.9,0.6-1.9,0.8-3,0.8c-3.7,0-7.3,0-11,0c-3.6,0-7.2,0-10.8,0c3.6,0,7.2,0,10.8,0c3.7,0,7.3,0,11,0
		C103.1,53.3,104.1,53.1,105,52.5c0.1-0.1,0.3-0.1,0.5,0C105.3,52.5,105.1,52.5,105,52.5z"/>
	<path class="st2" d="M78.5,47.9c-0.6,1.6-1.4,3.2-2,4.9c-0.1,0.3-0.3,0.5-0.6,0.5c0.3,0,0.5-0.2,0.6-0.5
		C77.1,51.1,77.8,49.5,78.5,47.9c0.1-0.3,0.3-0.4,0.6-0.4C78.8,47.5,78.6,47.6,78.5,47.9z"/>
	<path class="st2" d="M107.9,53.3C107.9,53.3,107.9,53.3,107.9,53.3c0.3,0,0.5,0,0.8,0C108.5,53.3,108.2,53.3,107.9,53.3
		C107.9,53.3,107.9,53.3,107.9,53.3z"/>
	<path class="st2" d="M171.2,48c-0.6,1.4-1.2,2.9-1.8,4.3C170,50.9,170.6,49.5,171.2,48c0.1-0.4,0.3-0.5,0.7-0.5
		C171.5,47.5,171.3,47.7,171.2,48z"/>
	<path class="st2" d="M116.4,53c-0.7,0.2-1.5,0.2-2.2,0.2c-1.6,0-3.1,0-4.7,0c1.6,0,3.1,0,4.7,0C115,53.3,115.7,53.2,116.4,53
		c2.6-0.5,4.9-1.6,7-3.6c0,0,0,0,0,0C121.4,51.4,119,52.5,116.4,53z"/>
	<path class="st2" d="M23.2,34.7c-1.1,0-2.3,0-3.4,0c0,0,0,0,0,0c0,0,0,0,0,0C21,34.7,22.1,34.7,23.2,34.7z"/>
	<path class="st2" d="M36,40.3c-0.6,0-1.1,0-1.7,0C34.9,40.4,35.5,40.3,36,40.3c0.5,0,0.7,0.1,0.7,0.5C36.8,40.5,36.5,40.4,36,40.3z
		"/>
	<path class="st2" d="M18.4,53.3h-0.6l0,0H18.4c1.5,0,2.9,0,4.4,0C21.3,53.3,19.8,53.3,18.4,53.3z"/>
	<path class="st2" d="M154,47.6c-0.5,1.1-0.9,2.3-1.4,3.4C153.1,49.8,153.5,48.7,154,47.6L154,47.6z"/>
	<path class="st2" d="M122.1,53.3C122.1,53.3,122.1,53.3,122.1,53.3c2.6,0,5.1,0,7.7,0C127.2,53.3,124.7,53.3,122.1,53.3
		C122.1,53.3,122.1,53.3,122.1,53.3z"/>
	<path class="st2" d="M134.4,47.5c0.1,0,0.2,0,0.4,0l0,0C134.7,47.5,134.6,47.5,134.4,47.5z"/>
	<path class="st2" d="M133,48c-0.7,1.6-1.4,3.2-2,4.9c-0.1,0.3-0.2,0.5-0.6,0.5c0,0,0,0,0,0c0.4,0,0.5-0.2,0.6-0.5
		C131.6,51.2,132.3,49.6,133,48c0.1-0.2,0.3-0.4,0.4-0.4c0.1,0,0.3,0,0.4,0c-0.1,0-0.3,0-0.4,0C133.2,47.6,133,47.8,133,48z"/>
	<path class="st2" d="M151.2,49.1c-0.6,1.2-1.2,2.5-1.8,3.7C150,51.5,150.6,50.3,151.2,49.1c0.4-0.9,0.6-1.3,1-1.5
		C151.8,47.8,151.6,48.2,151.2,49.1z"/>
	<polygon class="st2" points="59.1,48.3 59.1,48.3 59.1,48.3 59.1,48.3 	"/>
	<path class="st2" d="M19.4,35C19.3,35.1,19.3,35.1,19.4,35c-0.2,0.5-0.4,0.9-0.6,1.3C18.9,35.9,19.1,35.5,19.4,35
		C19.3,35.1,19.3,35.1,19.4,35z"/>
	<path class="st2" d="M63.4,42.4c2.1,0,4.2,0,6.3,0C67.6,42.4,65.5,42.4,63.4,42.4c-0.1,0-0.4,0.1-0.4,0.2c-0.2,0.4-0.3,0.7-0.5,1.1
		c0.2-0.4,0.3-0.7,0.5-1.1C63,42.5,63.3,42.4,63.4,42.4z"/>
	<path class="st2" d="M52.8,49.7c0-0.3,0.1-0.5,0.2-0.8C52.9,49.2,52.8,49.5,52.8,49.7c0,1.2,0.9,2.1,2.2,2.1c0.6,0,1.2,0,1.9,0
		c-0.6,0-1.2,0-1.9,0C53.8,51.8,52.8,50.9,52.8,49.7z"/>
	<path class="st2" d="M59.2,47.9c0,0,0-0.1,0-0.1c0.2-0.4,0.4-0.9,0.5-1.3c-0.2,0.4-0.4,0.9-0.5,1.3C59.2,47.8,59.2,47.8,59.2,47.9z
		"/>
	<path class="st2" d="M63.3,40.9c2.4,0,4.9,0,7.3,0c0.1,0,0.2,0,0.3-0.1c-0.1,0-0.2,0.1-0.3,0.1C68.1,40.9,65.7,41,63.3,40.9z"/>
	<path class="st2" d="M65.9,46.8c0.3,0,0.7,0,1,0c0,0,0,0,0,0c0,0,0,0,0,0C66.6,46.8,66.3,46.8,65.9,46.8z"/>
	<path class="st2" d="M77.6,46.3C77.6,46.3,77.6,46.3,77.6,46.3C77.6,46.3,77.6,46.3,77.6,46.3z"/>
	<polygon class="st2" points="74.8,51.8 74.8,51.8 74.8,51.8 	"/>
	<path class="st2" d="M81.8,46.3c-0.1-0.1-0.1-0.1-0.2-0.1C81.7,46.2,81.8,46.3,81.8,46.3z"/>
	<path class="st2" d="M82.1,46.6c0-0.1-0.1-0.1-0.1-0.2C82,46.4,82,46.5,82.1,46.6z"/>
	<path class="st2" d="M68.6,49.6C68.6,49.7,68.6,49.7,68.6,49.6C68.7,49.7,68.7,49.7,68.6,49.6C68.7,49.7,68.7,49.7,68.6,49.6
		C68.6,49.7,68.6,49.7,68.6,49.6z"/>
	<path class="st2" d="M68.9,49.6c0.2-0.6,0.5-1.2,0.7-1.8C69.3,48.5,69.1,49.1,68.9,49.6C68.9,49.6,68.9,49.6,68.9,49.6z"/>
	<path class="st2" d="M20,51.8C20,51.8,20,51.8,20,51.8c1.6,0,3.1,0,4.6,0C23.1,51.8,21.6,51.8,20,51.8z"/>
	<path class="st2" d="M31.9,39.4c-1.6,3.9-3.2,7.9-4.8,11.8c-0.2,0.5-0.4,0.6-0.9,0.6c0,0,0,0,0,0c0.5,0,0.7-0.1,0.9-0.6
		C28.7,47.3,30.3,43.4,31.9,39.4c0.2-0.5,0.4-0.6,0.9-0.6c0.6,0,1.3,0,1.9,0c-0.6,0-1.3,0-1.9,0C32.3,38.9,32.1,39,31.9,39.4z"/>
	<path class="st2" d="M17.8,38.9L17.8,38.9h7.5c-0.4,1-0.8,2-1.2,2.9c0.4-1,0.8-2,1.2-2.9H17.8z"/>
	<path class="st2" d="M18.4,37.3c-0.2,0.4-0.3,0.7-0.5,1.1c0,0,0,0.1,0,0.1c0,0,0-0.1,0-0.1C18.1,38,18.2,37.7,18.4,37.3z"/>
	<path class="st2" d="M34.2,51.1c0.4-0.9,0.7-1.7,1.1-2.6C34.9,49.4,34.5,50.2,34.2,51.1c-0.1,0.2-0.2,0.4-0.3,0.7h18.7c0,0,0,0,0,0
		H33.9C34,51.5,34.1,51.3,34.2,51.1z"/>
	<path class="st2" d="M51.7,48.1c-0.1-0.3-0.2-0.5-0.3-0.8C51.5,47.5,51.6,47.8,51.7,48.1z"/>
	<path class="st2" d="M93.1,37.8c-0.1,0.2-0.2,0.3-0.3,0.5C92.9,38.2,93,38,93.1,37.8z"/>
	<path class="st2" d="M53.1,42.5C53.1,42.5,53.1,42.5,53.1,42.5C53.1,42.5,53.1,42.5,53.1,42.5z"/>
	<path class="st2" d="M52.7,43.3c0-0.1,0.1-0.2,0.1-0.3C52.8,43,52.7,43.1,52.7,43.3z"/>
	<path class="st2" d="M54.1,42.4L54.1,42.4c-0.8,1.9-1.5,3.7-2.3,5.6C52.6,46.1,53.3,44.3,54.1,42.4z"/>
	<path class="st2" d="M66.5,51.8c0.6,0,1.2,0,1.8,0c0.1,0,0.3,0,0.5,0c-0.2,0-0.4,0-0.5,0C67.7,51.8,67.1,51.8,66.5,51.8z"/>
	<path class="st2" d="M52.9,42.8c0-0.1,0.1-0.1,0.1-0.2C52.9,42.7,52.9,42.7,52.9,42.8z"/>
	<path class="st2" d="M83.5,23.1c1.2,1.7,2.4,3.4,3.6,5.1C85.9,26.5,84.6,24.8,83.5,23.1c-0.4-0.7-1-0.9-1.9-1c0,0,0,0,0,0
		C82.5,22.2,83,22.4,83.5,23.1z"/>
	<path class="st2" d="M86.7,28.6c0.1-0.1,0.3-0.3,0.4-0.4C87,28.4,86.8,28.5,86.7,28.6z"/>
	<path class="st2" d="M79,22.1C79,22.1,79,22.1,79,22.1C79,22.1,79,22.1,79,22.1c1.7,2.4,3.4,4.8,5.1,7.2c0,0.1,0.1,0.1,0.1,0.2
		c0-0.1-0.1-0.1-0.1-0.2C82.4,27,80.7,24.5,79,22.1z"/>
	<path class="st2" d="M86.3,23.9c-0.4-0.5-0.9-0.7-1.6-0.9c0,0,0,0,0,0C85.4,23.2,85.9,23.4,86.3,23.9z"/>
	<path class="st2" d="M85.3,29.5L85.3,29.5c-0.4,0.3-0.5,0.4-0.7,0.4C84.8,29.9,85,29.8,85.3,29.5z"/>
	<path class="st2" d="M83.1,29.8c-1.9-2.6-3.8-5.1-5.6-7.8c-0.4-0.6-0.9-0.7-1.5-0.6c0,0,0,0,0,0c0.7-0.1,1.1,0,1.5,0.6
		C79.3,24.7,81.2,27.3,83.1,29.8c0.1,0.2,0.2,0.3,0.3,0.5l0,0C83.3,30.2,83.2,30,83.1,29.8z"/>
	<path class="st2" d="M80.4,22.4c0.9,1.4,1.9,2.7,2.9,4.1C82.3,25.2,81.3,23.8,80.4,22.4c-0.4-0.6-0.9-0.8-1.7-0.8c0,0,0,0,0,0
		c0,0,0,0,0,0C79.5,21.6,80,21.8,80.4,22.4z"/>
	<path class="st2" d="M134.7,53.3c2.3,0,4.7,0,7,0C139.3,53.3,137,53.3,134.7,53.3C134.7,53.3,134.7,53.3,134.7,53.3z"/>
	<path class="st2" d="M169.1,53c0,0.1-0.1,0.1-0.1,0.1C169.1,53.1,169.1,53.1,169.1,53z"/>
	<path class="st2" d="M87.7,25.9c0.2,0.3,0.3,0.5,0.3,0.6C88,26.4,87.9,26.2,87.7,25.9c-0.4-0.6-0.9-1.3-1.3-1.9
		C86.8,24.7,87.3,25.3,87.7,25.9z"/>
	<path class="st2" d="M67.7,23.5c0.5,0.7,1.1,1.4,1.6,2C68.8,24.9,68.2,24.3,67.7,23.5c-0.2-0.2-0.3-0.4-0.5-0.4
		C67.4,23.2,67.6,23.3,67.7,23.5z"/>
	<path class="st2" d="M66.6,23.4c-0.1,0-0.1,0.1-0.2,0.1c0.5,0.4,1,0.8,1.4,1.1c-0.5-0.4-0.9-0.8-1.4-1.1
		C66.4,23.4,66.5,23.4,66.6,23.4z"/>
	<path class="st2" d="M23.1,40.4c0,0.1-0.1,0.1-0.1,0.2C23.1,40.5,23.1,40.4,23.1,40.4L23.1,40.4z"/>
	<path class="st2" d="M88.8,25.4C88.8,25.4,88.8,25.4,88.8,25.4C88.8,25.4,88.8,25.4,88.8,25.4z"/>
	<path class="st2" d="M88.8,25.7c0,0.1,0,0.2,0,0.3C88.8,25.9,88.8,25.8,88.8,25.7z"/>
	<path class="st2" d="M88.3,24.4c-0.2-0.4-0.6-0.7-1-1c-0.2-0.1-0.4-0.2-0.6-0.3c0.2,0.1,0.4,0.2,0.6,0.3
		C87.7,23.7,88.1,24.1,88.3,24.4z"/>
	<path class="st2" d="M88.4,24.5c0,0,0,0.1,0.1,0.1C88.4,24.6,88.4,24.5,88.4,24.5z"/>
	<path class="st2" d="M64.5,23.6L64.5,23.6C64.5,23.6,64.5,23.5,64.5,23.6C64.5,23.5,64.5,23.6,64.5,23.6z"/>
	<path class="st2" d="M77.7,31.1c-2.2-2.9-4.4-5.8-6.6-8.8c-0.1-0.1-0.2-0.3-0.3-0.4h0c0.1,0.1,0.2,0.3,0.3,0.4
		C73.3,25.3,75.5,28.2,77.7,31.1c0.2,0.3,0.4,0.4,0.7,0.5C78.2,31.6,77.9,31.4,77.7,31.1z"/>
	<path class="st2" d="M78.8,31c0.1,0.1,0.1,0.1,0.2,0.2C78.9,31.2,78.9,31.1,78.8,31z"/>
	<path class="st2" d="M81.1,30.6c-2.1-2.8-4.3-5.7-6.4-8.5c-0.4-0.6-0.9-0.6-1.5-0.4c0,0,0,0,0,0c0.6-0.1,1-0.1,1.5,0.4
		C76.7,24.9,78.9,27.7,81.1,30.6c0.1,0.1,0.2,0.3,0.3,0.4c0,0,0,0,0,0C81.2,30.8,81.1,30.7,81.1,30.6z"/>
	<path class="st2" d="M65.9,22.8c-0.1,0.1-0.3,0.1-0.4,0.2c0,0,0,0,0,0c0,0,0,0,0,0C65.6,22.9,65.7,22.9,65.9,22.8z"/>
	<path class="st2" d="M71.4,21.8C71.4,21.8,71.4,21.8,71.4,21.8C71.4,21.8,71.4,21.8,71.4,21.8z"/>
	<path class="st2" d="M69.7,22.6c-0.4-0.4-0.7-0.4-1.2-0.1c0,0,0,0,0,0C69,22.2,69.4,22.3,69.7,22.6z"/>
	<path class="st2" d="M77.3,32.5c2.5-0.4,5-0.8,7.3-1.8c1.3-0.6,2.5-1.3,3.4-2.4c0.6-0.7,0.9-1.5,0.8-2.3c0,0.8-0.3,1.6-0.8,2.3
		c-0.9,1.1-2.1,1.8-3.4,2.4C82.3,31.7,79.8,32.1,77.3,32.5c-1.6,0.3-2.5-0.2-3.5-1.4c-2.3-3.2-5.5-5.3-8.9-7.2
		c-0.1,0-0.2-0.1-0.3-0.2c0.1,0.1,0.2,0.1,0.3,0.2c3.4,1.9,6.6,4,8.9,7.2C74.8,32.3,75.8,32.7,77.3,32.5z"/>
	<path class="st2" d="M91.5,36c0.1,0.1,0.2,0.1,0.3,0.2l0,0C91.7,36.1,91.6,36.1,91.5,36z"/>
	<path class="st2" d="M79.6,51.8c0,0,0-0.1,0-0.1C79.6,51.8,79.6,51.8,79.6,51.8z"/>
	<path class="st2" d="M86.8,36.2c-0.3,0-0.5,0.2-0.7,0.5c0,0-0.1,0.1-0.1,0.1c0,0,0.1-0.1,0.1-0.1C86.3,36.4,86.5,36.2,86.8,36.2z"
		/>
	<path class="st2" d="M100.3,46.2c1.8-4.4,3.6-8.7,5.3-13h0C103.9,37.5,102.1,41.8,100.3,46.2C100.3,46.2,100.3,46.2,100.3,46.2z"/>
	<path class="st2" d="M113,33.2C112.9,33.2,112.9,33.2,113,33.2C112.9,33.2,112.9,33.2,113,33.2z"/>
	<path class="st2" d="M102,46C102,46,102,46,102,46c-0.1,0-0.1,0-0.1,0C101.9,46,101.9,46,102,46C102,46,102,46,102,46z"/>
	<path class="st2" d="M41.5,36.2c0.1-0.3,0.2-0.5,0.3-0.8C41.7,35.7,41.6,36,41.5,36.2L41.5,36.2z"/>
	<path class="st2" d="M81.3,41.7C81.3,41.7,81.3,41.7,81.3,41.7C81.3,41.7,81.3,41.7,81.3,41.7C81.3,41.7,81.3,41.7,81.3,41.7
		C81.3,41.7,81.3,41.7,81.3,41.7z"/>
	<path class="st2" d="M42.2,33.2c0.1,0,0.2,0,0.4,0c-0.1,0.3-0.2,0.6-0.4,0.9c0.1-0.3,0.2-0.6,0.4-0.9
		C42.5,33.2,42.3,33.2,42.2,33.2c-7.7,0-15.5,0-23.2,0c-0.1,0-0.3,0-0.4,0.1c0.1,0,0.2-0.1,0.4-0.1C26.7,33.2,34.5,33.2,42.2,33.2z"
		/>
	<path class="st2" d="M112.5,45.9c1.7-4.3,3.5-8.5,5.2-12.7c-1.6,0-3.1,0-4.7,0c1.5,0,3.1,0,4.7,0C115.9,37.4,114.2,41.6,112.5,45.9
		z"/>
	<path class="st2" d="M81.1,41.6c0.7-1.8,1.4-3.6,2.2-5.4h0C82.5,38.1,81.8,39.8,81.1,41.6C81.1,41.6,81.1,41.6,81.1,41.6z"/>
	<path class="st2" d="M56.7,36.2c-0.1,0-0.1,0-0.2,0c-1.2,0-2.4,0-3.6,0c1.2,0,2.4,0,3.6,0C56.6,36.2,56.7,36.2,56.7,36.2z"/>
	<path class="st2" d="M89.4,36.2c-0.4,0-0.9,0-1.3,0C88.5,36.2,88.9,36.2,89.4,36.2z"/>
	<path class="st2" d="M33.6,40.3c-0.1,0-0.1,0-0.2,0C33.5,40.3,33.5,40.3,33.6,40.3z"/>
	<path class="st2" d="M31.7,53.3L31.7,53.3c0,0,0-0.1,0.1-0.1C31.7,53.2,31.7,53.3,31.7,53.3z"/>
	<path class="st2" d="M79.3,47.5c-0.1,0-0.1,0-0.2,0C79.2,47.5,79.3,47.5,79.3,47.5z"/>
	<path class="st2" d="M33.3,40.4c-0.1,0-0.1,0.1-0.1,0.1C33.2,40.5,33.2,40.4,33.3,40.4z"/>
	<path class="st2" d="M108,33.2c0.1,0,0.1,0,0.2,0C108.1,33.2,108.1,33.2,108,33.2z"/>
	<path class="st2" d="M130.4,33.2c-0.4,1-0.8,2-1.2,3c0,0,0,0,0,0c0,0,0,0,0,0C129.6,35.2,130,34.2,130.4,33.2c-2.5,0-4.9,0-7.3,0
		C125.5,33.2,127.9,33.2,130.4,33.2z"/>
	<polygon class="st2" points="129.9,36.2 129.9,36.2 129.9,36.2 	"/>
	<path class="st2" d="M120.6,33.2c0.1,0,0.2-0.1,0.4-0.1C120.8,33.2,120.7,33.2,120.6,33.2z"/>
	<path class="st2" d="M15.5,40.4L15.5,40.4c0.1-0.2,0.1-0.3,0.1-0.4C15.6,40.1,15.6,40.2,15.5,40.4z"/>
	<path class="st2" d="M113,46.2c-0.1,0-0.2,0-0.4,0C112.8,46.2,112.9,46.2,113,46.2z"/>
	<path class="st2" d="M76.5,31.2c-0.2-0.2-0.3-0.4-0.5-0.6C76.2,30.9,76.3,31,76.5,31.2c0.1,0.2,0.2,0.3,0.4,0.5c0,0,0,0,0,0
		C76.7,31.6,76.6,31.4,76.5,31.2z"/>
	<path class="st2" d="M137.7,40.9c-1.1,0-2.3,0-3.4,0C135.4,40.9,136.6,40.9,137.7,40.9c0.7,0,0.9,0.3,0.8,0.8
		C138.6,41.2,138.4,41,137.7,40.9z"/>
	<path class="st2" d="M129.4,51.8c0.2,0,0.4-0.1,0.5-0.3C129.8,51.7,129.6,51.8,129.4,51.8z"/>
	<path class="st2" d="M124.3,51.2c1-2.5,2.1-5,3.1-7.5c0,0,0,0,0,0c0,0,0,0,0,0C126.4,46.2,125.3,48.7,124.3,51.2
		c-0.1,0.2-0.1,0.4-0.2,0.6c0.7,0,1.3,0,1.9,0c-0.6,0-1.3,0-1.9,0C124.2,51.5,124.2,51.4,124.3,51.2z"/>
	<path class="st2" d="M138.2,42.4c-0.3,0.6-0.7,0.8-1.6,0.8C137.5,43.1,137.9,42.9,138.2,42.4z"/>
	<path class="st2" d="M108.6,51.8c1.7,0,3.3,0,5,0c2.2,0,4.3-0.6,6.3-1.5c-2,1-4,1.6-6.3,1.5C111.9,51.8,110.2,51.8,108.6,51.8z"/>
	<path class="st2" d="M126.7,38.4c-0.1,0.3-0.3,0.7-0.4,1C126.5,39,126.6,38.7,126.7,38.4c1,0.6,1.5,1.5,1.8,2.6
		C128.2,39.9,127.7,39,126.7,38.4z"/>
	<path class="st2" d="M124.3,44.3c0.4-0.9,0.7-1.7,1.1-2.6c0.1-0.3,0.3-0.7,0.4-1c-0.1,0.3-0.3,0.7-0.4,1
		C125,42.5,124.6,43.4,124.3,44.3z"/>
	<path class="st2" d="M143.2,47.3C143.2,47.3,143.2,47.3,143.2,47.3C143.2,47.2,143.2,47.2,143.2,47.3
		C143.2,47.2,143.2,47.2,143.2,47.3z"/>
	<path class="st2" d="M132.2,46.1c-0.2,0.5-0.5,1.1-0.7,1.6C131.7,47.1,131.9,46.6,132.2,46.1c0.6,0,1.1,0,1.7,0
		C133.3,46.1,132.7,46.1,132.2,46.1z"/>
	<polygon class="st2" points="143.1,45.9 143.1,45.9 143.1,45.9 	"/>
	<path class="st2" d="M145.8,41.6L145.8,41.6c-0.1,0.2-0.2,0.4-0.2,0.6c-0.2,0.4-0.4,0.9-0.6,1.3c0.2-0.4,0.4-0.9,0.6-1.3
		C145.6,42,145.7,41.8,145.8,41.6z"/>
	<path class="st2" d="M136.3,47.2c0.1-0.7-0.3-1.1-1-1.2C136,46.1,136.4,46.5,136.3,47.2c0,0.4-0.1,0.8-0.1,1.2
		c-0.1,1-0.2,2.1-0.3,3.1c0.1-1,0.2-2.1,0.3-3.1C136.2,48,136.3,47.6,136.3,47.2z"/>
	<path class="st2" d="M135.9,51.8C135.9,51.8,135.9,51.8,135.9,51.8l5.8,0c0-0.1,0-0.2,0-0.3c0,0.1,0,0.2,0,0.3H135.9z"/>
	<path class="st2" d="M117.4,44.4c-0.2,0.4-0.3,0.7-0.5,1.1c0,0,0,0,0,0.1c0,0,0,0,0-0.1C117.1,45.2,117.3,44.8,117.4,44.4z"/>
	<path class="st2" d="M115.1,47.3c-0.1,0-0.3,0.1-0.4,0.1c0,0-0.1,0-0.1,0c0,0,0.1,0,0.1,0C114.8,47.4,115,47.4,115.1,47.3z"/>
	<path class="st2" d="M121.6,34.7c-0.2,0.1-0.3,0.3-0.4,0.5c-0.7,1.7-1.4,3.3-2,5c0.7-1.7,1.4-3.3,2-5
		C121.3,35,121.4,34.8,121.6,34.7z"/>
	<path class="st2" d="M110.2,47.7C110.2,47.7,110.1,47.7,110.2,47.7L110.2,47.7C110.1,47.7,110.2,47.7,110.2,47.7z"/>
	<path class="st2" d="M127.8,37.7c3.2,0,6.5,0,9.7,0C134.3,37.7,131.1,37.7,127.8,37.7H127h0H127.8z"/>
	<path class="st2" d="M128.2,34.7C128.2,34.7,128.2,34.7,128.2,34.7c-1.8,0-3.5,0-5.1,0C124.8,34.7,126.5,34.7,128.2,34.7z"/>
	<path class="st2" d="M105.4,50c-0.7,1.1-1.6,1.6-2.6,1.7C103.8,51.6,104.7,51.1,105.4,50c0.6,1.3,1.5,1.8,2.8,1.8
		C106.9,51.8,106,51.3,105.4,50z"/>
	<path class="st2" d="M95.6,51.8C95.7,51.8,95.7,51.8,95.6,51.8C95.7,51.8,95.7,51.8,95.6,51.8z"/>
	<path class="st2" d="M89.6,51.8c0.1-0.3,0.2-0.5,0.3-0.7c1.3-3.1,2.5-6.1,3.8-9.2c-1.3,3.1-2.5,6.1-3.8,9.2
		C89.8,51.3,89.7,51.5,89.6,51.8h0.8c1.7,0,3.5,0,5.2,0c-1.7,0-3.5,0-5.2,0H89.6z"/>
	<path class="st2" d="M103.6,46.7c-0.1,0.2-0.3,0.3-0.4,0.4C103.3,47,103.4,46.9,103.6,46.7z"/>
	<path class="st2" d="M108.8,34.7c-0.2,0.1-0.3,0.2-0.4,0.5c-1.1,2.7-2.2,5.4-3.3,8.2c1.1-2.7,2.2-5.4,3.3-8.2
		C108.5,35,108.6,34.8,108.8,34.7z"/>
	<path class="st2" d="M94.9,37.7c-0.2-0.8-0.7-1.5-1.3-2.1C94.2,36.2,94.7,36.9,94.9,37.7c0.1,0.4,0.1,0.8,0,1.2
		C95,38.5,95,38.2,94.9,37.7z"/>
	<path class="st2" d="M153.9,37.7c-2.6,0-5.3,0-7.9,0h-0.5l0,0h0.5C148.6,37.7,151.3,37.7,153.9,37.7z"/>
	<path class="st2" d="M168.9,40.9c0.7,0,1.3,0,2,0C170.2,40.9,169.5,40.9,168.9,40.9z"/>
	<path class="st2" d="M165.6,43.7C165.6,43.7,165.6,43.7,165.6,43.7c0,0.1,0,0.1-0.1,0.1C165.6,43.8,165.6,43.8,165.6,43.7
		C165.6,43.7,165.6,43.7,165.6,43.7z"/>
	<polygon class="st2" points="164.6,37.7 164.6,37.7 164.6,37.7 	"/>
	<path class="st2" d="M176,40.9c-0.3,0-0.6,0-0.9,0C175.4,40.9,175.7,40.9,176,40.9c0.5,0,0.8,0.2,0.8,0.6
		C176.8,41.1,176.5,41,176,40.9z"/>
	<path class="st2" d="M164.1,37.8L164.1,37.8C164.2,37.8,164.2,37.8,164.1,37.8C164.2,37.8,164.2,37.8,164.1,37.8z"/>
	<polygon class="st2" points="166.8,40.7 166.8,40.7 166.8,40.7 	"/>
	<path class="st2" d="M171,46c-0.4,0-0.7,0.1-0.8,0.5c-0.6,1.6-1.3,3.1-1.9,4.7c-0.1,0.4-0.3,0.5-0.8,0.5c-1.5,0-3.1,0-4.6,0
		c0,0-0.1,0-0.1,0c0,0,0.1,0,0.1,0c1.5,0,3.1,0,4.6,0c0.4,0,0.6-0.1,0.8-0.5c0.6-1.6,1.3-3.1,1.9-4.7C170.3,46.2,170.6,46,171,46
		c2.1,0,4.2,0,6.3,0C175.2,46.1,173.1,46.1,171,46z"/>
	<path class="st2" d="M89.6,43.5c-0.2,0.2-0.5,0.4-0.8,0.6C89.1,43.9,89.3,43.7,89.6,43.5z"/>
	<path class="st2" d="M183,39.7c0-0.9-0.7-1.7-1.6-1.9C182.3,38,183,38.8,183,39.7c0,0.2,0,0.5-0.1,0.7c-0.6,1.4-1.2,2.7-1.8,4.1
		c-0.4,1-1.2,1.5-2.2,1.6c1-0.1,1.8-0.6,2.2-1.6c0.6-1.3,1.2-2.7,1.8-4.1C183,40.2,183,39.9,183,39.7z"/>
	<path class="st2" d="M162.3,51.8c0.1,0,0.1,0,0.2,0C162.5,51.8,162.4,51.8,162.3,51.8L162.3,51.8z"/>
	<path class="st2" d="M180.8,36.2c-0.3,0-0.5,0-0.8,0C180.3,36.2,180.5,36.2,180.8,36.2c2.3,0,4.2,2,3.6,4.2c-0.5,2-1.3,3.9-2.5,5.6
		c-0.8,1.1-1.9,1.6-3.2,1.6c0,0,0,0,0,0c1.3,0,2.4-0.5,3.2-1.6c1.2-1.7,2-3.6,2.5-5.6C184.9,38.3,183.1,36.2,180.8,36.2z"/>
	<path class="st2" d="M163.5,38.2c0.1,0.1,0.2,0.2,0.3,0.2C163.7,38.4,163.6,38.3,163.5,38.2z"/>
	<path class="st2" d="M144,49.1c0.3-0.5,0.6-1,0.8-1.5C144.5,48,144.3,48.6,144,49.1z"/>
	<path class="st2" d="M143.2,45.6C143.2,45.7,143.1,45.7,143.2,45.6C143.1,45.7,143.2,45.7,143.2,45.6z"/>
	<path class="st2" d="M151,46.3c-0.1,0.1-0.2,0.2-0.3,0.3C150.8,46.5,150.9,46.4,151,46.3z"/>
	<path class="st2" d="M151.4,46.1c-0.1,0-0.3,0.1-0.4,0.2C151.2,46.2,151.3,46.1,151.4,46.1c1.6-0.1,3.1,0,4.7,0c0,0,0,0,0,0
		C154.6,46.1,153,46,151.4,46.1z"/>
	<path class="st2" d="M146.3,42.5c0,0,0.1,0.1,0.1,0.1h0C146.4,42.5,146.4,42.5,146.3,42.5z"/>
	<path class="st2" d="M143.3,47.1c1-1.5,1.5-3.2,2.8-4.3C144.8,43.9,144.3,45.6,143.3,47.1z"/>
	<path class="st2" d="M147.7,51.8c-1.7,0-3.4,0-5.2,0c0,0,0,0,0,0C144.3,51.8,146,51.8,147.7,51.8c0.4,0,0.6-0.1,0.8-0.5
		c0.7-1.5,1.4-2.9,2.1-4.4c-0.7,1.4-1.4,2.9-2.1,4.4C148.3,51.7,148.1,51.8,147.7,51.8z"/>
	<path class="st2" d="M158,41.9C157.9,41.9,157.9,41.9,158,41.9c-0.1,0.3-0.2,0.5-0.3,0.6C157.8,42.3,157.9,42.1,158,41.9
		C157.9,41.9,157.9,41.9,158,41.9z"/>
	<path class="st2" d="M163.8,38.5c0.3,0.3,0.4,0.7,0.5,1.1C164.2,39.1,164,38.8,163.8,38.5z"/>
	<path class="st2" d="M144.3,41.2c0.1-0.4,0.3-0.7,0.4-1.1c0,0,0,0,0-0.1c0,0,0,0,0,0.1C144.6,40.5,144.4,40.9,144.3,41.2z"/>
	<path class="st2" d="M159.7,51.4c-0.1,0.2-0.3,0.4-0.5,0.4c-1.7,0-3.4,0-5,0c-0.1,0-0.1,0-0.3-0.1c0.1,0,0.2,0.1,0.3,0.1
		c1.7,0,3.4,0,5,0C159.4,51.8,159.7,51.5,159.7,51.4c1.5-3.6,3-7.2,4.4-10.8c0.1-0.1,0.1-0.3,0.1-0.5c0,0.2-0.1,0.3-0.1,0.5
		C162.7,44.2,161.2,47.8,159.7,51.4z"/>
	<path class="st2" d="M157.3,41c-0.9,0-1.7,0-2.6,0c-2.3,0-4.7,0-7,0c-0.4,0-0.5-0.1-0.6-0.5c-0.2-0.8-0.5-1.6-1-2.2
		c0.5,0.6,0.8,1.4,1,2.2c0.1,0.4,0.3,0.5,0.6,0.5c2.3,0,4.7,0,7,0C155.6,40.9,156.5,40.9,157.3,41c0.5,0,0.7,0.2,0.7,0.6
		C158,41.2,157.8,41,157.3,41z"/>
	<path class="st2" d="M82.1,47.2c0,0.1,0,0.3,0,0.4c-0.1,1-0.2,2.1-0.3,3.1c0.1-1,0.2-2.1,0.3-3.1C82.1,47.5,82.1,47.3,82.1,47.2z"
		/>
	<path class="st2" d="M81.7,51.8L81.7,51.8h5.8c0-0.4,0-0.8,0-1.2c0,0.4,0,0.8,0,1.2H81.7z"/>
	<path class="st2" d="M90.9,44.7C90.9,44.7,90.9,44.7,90.9,44.7c-0.1,0.2-0.2,0.4-0.3,0.7C90.7,45.1,90.8,44.9,90.9,44.7z"/>
	<path class="st2" d="M78.8,46.1c0.6,0,1.3,0,1.9,0C80.1,46.1,79.5,46.1,78.8,46.1z"/>
	<path class="st2" d="M87.5,50.6c0-0.8,0-1.5,0-2.2C87.5,49.1,87.5,49.8,87.5,50.6z"/>
	<path class="st2" d="M75.5,51.3C75.5,51.3,75.5,51.3,75.5,51.3c0.3-0.8,0.7-1.6,1-2.4C76.2,49.7,75.8,50.5,75.5,51.3
		C75.5,51.3,75.5,51.3,75.5,51.3z"/>
	<path class="st2" d="M88.8,45.5L88.8,45.5c0.2-0.1,0.4-0.1,0.5-0.2C89.1,45.4,88.9,45.4,88.8,45.5z"/>
	<path class="st2" d="M86.6,45.2c0.8,0.3,1,0.9,1,1.7C87.5,46.2,87.3,45.5,86.6,45.2z"/>
	<path class="st2" d="M89.4,46.6c0-0.1,0-0.2-0.1-0.2C89.4,46.5,89.4,46.6,89.4,46.6z"/>
	<path class="st2" d="M89.5,47.2c0-0.1,0-0.2,0-0.3C89.5,46.9,89.5,47,89.5,47.2z"/>
	<path class="st2" d="M89.6,47.9c0-0.2-0.1-0.5-0.1-0.7C89.5,47.4,89.5,47.6,89.6,47.9z"/>
	<path class="st2" d="M76.5,48.9c0.3-0.8,0.7-1.6,1-2.4c0,0,0-0.1,0.1-0.1c0,0,0,0.1-0.1,0.1C77.2,47.3,76.8,48.1,76.5,48.9z"/>
	<path class="st2" d="M93.1,37.7C93.1,37.7,93.1,37.7,93.1,37.7c-1.7,0-3.4,0-5.1,0C89.7,37.7,91.4,37.7,93.1,37.7z"/>
	<path class="st2" d="M87.2,38.1C87.2,38.1,87.2,38.1,87.2,38.1c-0.4,0.7-0.8,1.3-1.2,1.9C86.4,39.4,86.8,38.8,87.2,38.1
		C87.2,38.1,87.2,38.1,87.2,38.1z"/>
	<path class="st2" d="M89.9,43.1c0.2-0.3,0.4-0.5,0.6-0.9c0.5-1,1.1-2,1.7-2.9c-0.6,1-1.2,1.9-1.7,2.9
		C90.3,42.6,90.1,42.9,89.9,43.1z"/>
	<path class="st2" d="M69.6,51.8L69.6,51.8c1.1,0,2.2,0,3.3,0C71.8,51.8,70.7,51.8,69.6,51.8z"/>
	<path class="st2" d="M86.1,45C86.1,45,86.2,45,86.1,45C86.2,45,86.1,45,86.1,45L86.1,45z"/>
	<path class="st2" d="M87.4,44.6C87.4,44.6,87.4,44.6,87.4,44.6c0.6-0.2,1-0.3,1.4-0.6C88.4,44.3,88,44.5,87.4,44.6
		C87.4,44.6,87.4,44.6,87.4,44.6z"/>
	<path class="st2" d="M76,37.7c-0.5,0-0.7,0.2-0.9,0.6c-0.4,0.9-0.7,1.8-1.1,2.8c0.4-0.9,0.8-1.8,1.1-2.8
		C75.3,37.8,75.5,37.7,76,37.7z"/>
	<path class="st2" d="M85.4,41c-0.2,0.3-0.4,0.6-0.6,1c0,0-0.1,0.1-0.1,0.1c0,0,0.1-0.1,0.1-0.1C85,41.6,85.2,41.3,85.4,41z"/>
	<path class="st2" d="M81.1,37.7C81.1,37.7,81.1,37.7,81.1,37.7c-1.8,0-3.4,0-5.1,0C77.7,37.7,79.3,37.7,81.1,37.7z"/>
	<path class="st2" d="M83.1,43c0.3,0,0.5-0.1,0.7-0.2C83.6,43,83.4,43,83.1,43c-1.4,0.1-2.8,0-4.2,0c0.2-0.4,0.4-0.9,0.5-1.3
		c-0.2,0.4-0.4,0.9-0.5,1.3C80.4,43.1,81.7,43.1,83.1,43z"/>
	<path class="st2" d="M121.6,49.1c-0.1,0.1-0.2,0.2-0.3,0.3C121.4,49.3,121.5,49.2,121.6,49.1z"/>
	<path class="st2" d="M115,35.8c-0.2,0.6-0.5,1.1-0.7,1.7C114.6,36.9,114.8,36.3,115,35.8z"/>
	<path class="st2" d="M115.5,34.7c-0.8,0-1.5,0-2.2,0C114,34.7,114.7,34.7,115.5,34.7C115.5,34.7,115.5,34.7,115.5,34.7z"/>
	<path class="st2" d="M121.7,34.7C121.7,34.7,121.7,34.7,121.7,34.7C121.7,34.7,121.7,34.7,121.7,34.7z"/>
	<path class="st2" d="M121.8,34.7C121.8,34.7,121.8,34.7,121.8,34.7C121.8,34.7,121.8,34.7,121.8,34.7z"/>
	<path class="st2" d="M103.4,34.7L103.4,34.7c-0.6,1.4-1.1,2.7-1.7,4.1C102.3,37.4,102.9,36.1,103.4,34.7z"/>
	<path class="st2" d="M103.6,46.7C103.6,46.7,103.6,46.7,103.6,46.7C103.6,46.7,103.6,46.7,103.6,46.7z"/>
	<path class="st2" d="M140.9,44.7C141,44.7,141,44.7,140.9,44.7c0.9,0,1.5-0.2,2-0.8C142.5,44.5,141.8,44.8,140.9,44.7
		C141,44.7,141,44.7,140.9,44.7z"/>
	<path class="st2" d="M140.7,44.8c-0.1,0-0.2,0-0.3,0C140.5,44.8,140.6,44.8,140.7,44.8z"/>
	<path class="st2" d="M92.3,34.7c0.3,0.2,0.4,0.3,0.6,0.4C92.7,35,92.5,34.9,92.3,34.7L92.3,34.7z"/>
	<path class="st2" d="M143,37.8c0.2,0,0.3,0.1,0.5,0.2C143.4,37.9,143.2,37.8,143,37.8z"/>
	<path class="st2" d="M127.6,36.1c-0.2,0.5-0.4,0.9-0.6,1.4C127.3,37.1,127.4,36.6,127.6,36.1z"/>
	<path class="st2" d="M140.3,45c0-0.1,0-0.1,0-0.2C140.3,44.9,140.3,44.9,140.3,45C140.3,45,140.3,45,140.3,45z"/>
	<path class="st2" d="M122,34.6C122,34.6,122,34.6,122,34.6C122,34.6,122,34.6,122,34.6C122,34.6,122,34.6,122,34.6z"/>
	<path class="st2" d="M129.3,51.8c0,0-0.1,0-0.1,0C129.3,51.8,129.3,51.8,129.3,51.8z"/>
	<path class="st2" d="M121.1,49.5c-0.1,0-0.1,0.1-0.2,0.1C121,49.6,121,49.6,121.1,49.5z"/>
	<path class="st2" d="M89.9,47.2c-0.1,0.3-0.2,0.5-0.3,0.8c0,0,0,0,0,0C89.7,47.7,89.8,47.4,89.9,47.2z"/>
	<path class="st2" d="M138.3,42.3C138.3,42.3,138.3,42.3,138.3,42.3C138.3,42.3,138.3,42.3,138.3,42.3z"/>
	<path class="st2" d="M143.2,43.5c0-0.1,0.1-0.1,0.1-0.2c0-0.1,0.1-0.1,0.1-0.2c0,0.1-0.1,0.1-0.1,0.2
		C143.3,43.4,143.3,43.5,143.2,43.5z"/>
	<path class="st2" d="M90.5,45.8c-0.2,0.5-0.4,0.9-0.6,1.4C90.1,46.7,90.3,46.2,90.5,45.8z"/>
	<path class="st2" d="M129.2,51.8C129.2,51.8,129.2,51.8,129.2,51.8c-0.2,0-0.4,0-0.6,0C128.8,51.8,129,51.8,129.2,51.8z"/>
	<g>
		<path class="st2" d="M86.8,36.2c-0.3,0-0.5,0.2-0.7,0.5C86.3,36.4,86.5,36.2,86.8,36.2z"/>
		<path class="st2" d="M81.1,41.6c0.7-1.8,1.4-3.6,2.2-5.4h0C82.5,38.1,81.8,39.8,81.1,41.6C81.1,41.6,81.1,41.6,81.1,41.6z"/>
		<path class="st2" d="M100.3,46.2c1.8-4.4,3.6-8.7,5.3-13h0C103.9,37.5,102.1,41.8,100.3,46.2C100.3,46.2,100.3,46.2,100.3,46.2z"
			/>
		<path class="st2" d="M124.9,33.2c-0.6,0-1.2,0-1.8,0C123.7,33.2,124.3,33.2,124.9,33.2z"/>
		<path class="st2" d="M78.5,47.9c-0.6,1.6-1.4,3.2-2,4.9c-0.1,0.3-0.3,0.5-0.6,0.5c0.3,0,0.5-0.2,0.6-0.5
			C77.1,51.1,77.8,49.5,78.5,47.9c0.1-0.3,0.3-0.4,0.6-0.4C78.8,47.5,78.6,47.6,78.5,47.9z"/>
		<path class="st2" d="M130.4,33.2c-0.4,1-0.8,2-1.2,3C129.6,35.2,130,34.2,130.4,33.2z"/>
		<path class="st2" d="M28.1,52.7c-0.1,0.3-0.3,0.5-0.6,0.6C27.8,53.2,27.9,53.1,28.1,52.7c1.6-3.9,3.2-7.9,4.8-11.8
			c0.1-0.2,0.1-0.3,0.2-0.4c-0.1,0.1-0.2,0.2-0.2,0.4C31.3,44.9,29.7,48.8,28.1,52.7z"/>
		<path class="st2" d="M105,52.5c-0.9,0.6-1.9,0.8-3,0.8C103.1,53.3,104.1,53.1,105,52.5c0.1-0.1,0.3-0.1,0.5,0
			C105.3,52.5,105.1,52.5,105,52.5z"/>
		<path class="st2" d="M42.3,34.1c0.1-0.3,0.2-0.6,0.4-0.9c-0.2,0-0.3,0-0.4,0c0.1,0,0.2,0,0.4,0C42.5,33.5,42.4,33.8,42.3,34.1z"/>
		<path class="st2" d="M56.7,36.2c-0.1,0-0.1,0-0.2,0c-1.2,0-2.4,0-3.6,0c1.2,0,2.4,0,3.6,0C56.6,36.2,56.7,36.2,56.7,36.2z"/>
		<path class="st2" d="M77.3,32.5c2.5-0.4,5-0.8,7.3-1.8c1.3-0.6,2.5-1.3,3.4-2.4c0.6-0.7,0.9-1.5,0.8-2.3c0,0,0,0,0,0
			c0-0.1,0-0.2,0-0.3c0-0.1,0-0.2-0.1-0.3c0,0,0,0,0,0c-0.1-0.3-0.2-0.5-0.3-0.8c0,0,0-0.1-0.1-0.1c0,0,0,0,0,0
			c-0.2-0.4-0.6-0.7-1-1c-0.2-0.1-0.4-0.2-0.6-0.3c-0.4-0.2-0.9-0.5-1.3-0.6c-2.4-1-5-1.4-7.6-1.6c-4.2-0.4-8.2,0.2-12,2
			c-0.1,0.1-0.3,0.1-0.4,0.2c0,0,0,0,0,0c-0.3,0.1-0.6,0.3-0.9,0.6c0,0,0,0,0,0h0h0c0.1,0.1,0.1,0.1,0.2,0.1
			c0.1,0.1,0.2,0.1,0.3,0.2c3.4,1.9,6.6,4,8.9,7.2C74.8,32.3,75.8,32.7,77.3,32.5z"/>
		<path class="st2" d="M184.2,41.1c-0.5,1.7-1.2,3.4-2.3,4.8C183,44.5,183.7,42.8,184.2,41.1z"/>
		<path class="st2" d="M120.6,33.2c0.1,0,0.2-0.1,0.4-0.1C120.8,33.2,120.7,33.2,120.6,33.2z"/>
		<path class="st2" d="M36,40.3c-0.6,0-1.1,0-1.7,0C34.9,40.4,35.5,40.3,36,40.3z"/>
		<path class="st2" d="M18.4,53.3c1.5,0,2.9,0,4.4,0C21.3,53.3,19.8,53.3,18.4,53.3L18.4,53.3z"/>
		<path class="st2" d="M19,33.2c7.7,0,15.5,0,23.2,0C34.5,33.2,26.7,33.2,19,33.2z"/>
		<path class="st2" d="M117.7,33.2C117.7,33.2,117.7,33.2,117.7,33.2c-1.7,4.2-3.5,8.4-5.2,12.7C114.2,41.6,115.9,37.4,117.7,33.2z"
			/>
		<path class="st2" d="M18.6,33.2c0.1,0,0.2-0.1,0.4-0.1C18.8,33.2,18.7,33.2,18.6,33.2z"/>
		<path class="st2" d="M164.3,40.1c0-0.2,0-0.3,0-0.5c0,0,0,0,0,0c-0.1-0.4-0.3-0.8-0.5-1.1c0,0,0,0,0,0c-0.1-0.1-0.2-0.2-0.3-0.2
			c-0.4-0.3-1-0.5-1.6-0.5c-2.6,0-5.3,0-7.9,0s-5.3,0-7.9,0h-0.5c0.2,0.2,0.5,0.4,0.6,0.6c0.5,0.6,0.8,1.4,1,2.2
			c0.1,0.4,0.3,0.5,0.6,0.5c2.3,0,4.7,0,7,0c0.9,0,1.7,0,2.6,0c0.5,0,0.7,0.2,0.7,0.6c0,0.1,0,0.2-0.1,0.4c0,0,0,0,0,0
			c-0.1,0.2-0.2,0.4-0.3,0.6c-0.3,0.5-0.7,0.7-1.5,0.7c-2.3,0-4.5,0-6.8,0c-1.3,0-2.3,0.5-2.9,1.5c-0.6,0.9-1.1,1.9-1.6,2.9
			c-0.3,0.5-0.6,1-0.8,1.5c-0.5,0.9-1,1.8-1.5,2.7c0,0,0,0,0,0s0,0,0,0c1.9,0,3.6,0,5.2,0c0.4,0,0.6-0.1,0.8-0.5
			c0.7-1.5,1.4-2.9,2.1-4.4c0,0,0-0.1,0.1-0.1c0,0,0-0.1,0.1-0.1c0.1-0.1,0.2-0.2,0.3-0.3c0.1-0.1,0.3-0.2,0.4-0.2
			c1.6-0.1,3.1,0,4.7,0c-0.8,1.9-1.5,3.8-2.3,5.7c0,0,0,0,0,0c0.1,0,0.2,0.1,0.3,0.1c1.7,0,3.4,0,5,0c0.2,0,0.4-0.2,0.5-0.4
			c1.5-3.6,3-7.2,4.4-10.8C164.2,40.4,164.3,40.2,164.3,40.1z"/>
		<path class="st2" d="M90.5,45.8c0.1-0.1,0.1-0.3,0.2-0.4c0.1-0.2,0.2-0.4,0.3-0.7c-0.6,0.2-1.1,0.4-1.6,0.6
			c-0.2,0.1-0.4,0.1-0.5,0.2h0h0c0.4,0.3,0.5,0.6,0.6,0.9c0,0.1,0,0.2,0.1,0.2c0,0.1,0,0.1,0,0.2c0,0.1,0,0.2,0,0.3
			c0,0.2,0,0.5,0.1,0.7c0,0,0,0.1,0,0.1c0,0,0,0,0,0c0,0,0,0,0,0c0.1-0.3,0.2-0.5,0.3-0.8C90.1,46.7,90.3,46.2,90.5,45.8z"/>
		<path class="st2" d="M181.4,37.8c-0.2-0.1-0.4-0.1-0.7-0.1c-5.3,0-10.7,0-16,0c0,0,0,0,0,0c-0.1,0-0.2,0-0.4,0.1c0,0,0,0,0,0
			c1.3,0.7,2.2,1.6,2.6,3c0,0,0,0,0,0c0,0.1,0.3,0.2,0.5,0.2c0.5,0,1.1,0,1.6,0c0.7,0,1.3,0,2,0c0.4,0,0.8,0,1.2,0c1,0,2,0,3,0
			c0.3,0,0.6,0,0.9,0c0.5,0,0.8,0.2,0.8,0.6c0,0.1,0,0.3-0.1,0.4c-0.2,0.6-0.4,0.9-0.8,1.1c-0.2,0.1-0.5,0.1-0.9,0.1
			c-2.8,0-5.6,0-8.4,0c-0.1,0-0.1,0-0.2,0c-0.4,0-0.5,0.2-0.7,0.5c0,0,0,0.1,0,0.1c0,0,0,0,0,0c-0.9,2.2-1.8,4.5-2.7,6.7
			c-0.2,0.4-0.3,0.8-0.5,1.3v0c0.1,0,0.1,0,0.2,0c0.1,0,0.2,0,0.2,0c0,0,0.1,0,0.1,0c1.5,0,3.1,0,4.6,0c0.4,0,0.6-0.1,0.8-0.5
			c0.6-1.6,1.3-3.1,1.9-4.7c0.2-0.4,0.4-0.6,0.8-0.5c2.1,0,4.2,0,6.3,0c0.4,0,0.8,0,1.3,0c0.1,0,0.2,0,0.4,0c1-0.1,1.8-0.6,2.2-1.6
			c0.6-1.3,1.2-2.7,1.8-4.1c0.1-0.2,0.1-0.5,0.1-0.7C183,38.8,182.3,38,181.4,37.8z"/>
		<path class="st2" d="M140.3,44.8C140.3,44.8,140.3,44.8,140.3,44.8c0.1,0,0.2,0,0.3,0c0.1,0,0.2,0,0.3,0c0,0,0,0,0,0
			c0.8,0,1.5-0.2,2-0.8c0.1-0.1,0.2-0.3,0.3-0.4c0-0.1,0.1-0.1,0.1-0.2c0-0.1,0.1-0.1,0.1-0.2c0.3-0.6,0.6-1.2,0.8-1.9
			c0.1-0.4,0.3-0.7,0.4-1.1c0,0,0,0,0-0.1c0.1-0.2,0-0.4,0-0.6c-0.1-0.7-0.6-1.2-1.2-1.5c-0.1-0.1-0.3-0.1-0.5-0.2
			c-0.2,0-0.4-0.1-0.7-0.1c-1.6,0-3.2,0-4.9,0c-3.2,0-6.5,0-9.7,0H127c0-0.1,0-0.1,0.1-0.2c0.2-0.5,0.4-0.9,0.6-1.4
			c0.2-0.5,0.4-1,0.6-1.5c0,0,0,0,0,0c0,0,0,0,0,0c-1.8,0-3.5,0-5.1,0c-0.4,0-0.7,0-1.1,0c0,0,0,0,0,0c0,0,0,0,0,0c0,0,0,0-0.1,0
			c0,0-0.1,0-0.1,0c0,0-0.1,0-0.1,0c0,0,0,0-0.1,0c0,0,0,0-0.1,0c0,0-0.1,0-0.1,0c-0.2,0.1-0.3,0.3-0.4,0.5c-0.7,1.7-1.4,3.3-2,5
			c-0.6,1.4-1.1,2.8-1.7,4.2c-0.2,0.4-0.3,0.7-0.5,1.1c0,0,0,0,0,0.1c-0.4,0.9-1,1.5-1.8,1.7c-0.1,0-0.3,0.1-0.4,0.1
			c0,0-0.1,0-0.1,0c-1.4,0.2-2.8,0.2-4.4,0.3c0,0-0.1,0-0.1,0c1.4-3.5,2.8-6.9,4.2-10.3c0.2-0.6,0.5-1.1,0.7-1.7
			c0.2-0.4,0.3-0.7,0.5-1.1c0,0,0,0,0,0c0,0,0,0,0,0c-0.8,0-1.5,0-2.2,0c-1.3,0-2.6,0-3.9,0c-0.2,0-0.3,0-0.5,0.1
			c-0.2,0.1-0.3,0.2-0.4,0.5c-1.1,2.7-2.2,5.4-3.3,8.2c-0.3,0.8-0.7,1.7-1,2.5c-0.1,0.3-0.3,0.6-0.4,0.8c0,0,0,0,0,0.1c0,0,0,0,0,0
			c-0.1,0.2-0.3,0.3-0.4,0.4c-0.2,0.2-0.5,0.3-0.9,0.3c-1.3,0.2-2.7,0.2-4.1,0.2c1.2-3,2.5-6,3.7-8.9c0.6-1.4,1.1-2.7,1.7-4.1h0
			c0,0,0,0,0,0H92.3c0,0,0,0,0,0h0c0.3,0.2,0.4,0.3,0.6,0.4c0,0,0,0,0,0c0.2,0.2,0.5,0.3,0.7,0.5c0.6,0.6,1.1,1.2,1.3,2.1
			c0.1,0.4,0.1,0.8,0,1.2c0,0.1,0,0.1-0.1,0.2C94.4,40.1,94,41,93.7,42c-1.3,3.1-2.5,6.1-3.8,9.2c-0.1,0.2-0.2,0.4-0.3,0.7h0.8
			c1.7,0,3.5,0,5.2,0c0,0,0,0,0.1,0c0,0,0,0,0.1,0c1.7,0,3.5,0,5.2,0c0.7,0,1.3,0,1.9-0.1c1-0.2,1.9-0.6,2.6-1.7
			c0.6,1.3,1.5,1.8,2.8,1.8c0,0,0,0,0.1,0c0.1,0,0.2,0,0.3,0c1.7,0,3.3,0,5,0c2.2,0,4.3-0.6,6.3-1.5c0,0,0.1,0,0.1-0.1
			c0.3-0.2,0.6-0.4,0.9-0.6c0.1,0,0.1-0.1,0.2-0.1c0.1,0,0.1-0.1,0.2-0.1c0.1-0.1,0.2-0.2,0.3-0.3c0.8-0.7,1.4-1.6,1.8-2.7
			c0.3-0.7,0.5-1.5,0.8-2.2c0.4-0.9,0.7-1.7,1.1-2.6c0.1-0.3,0.3-0.7,0.4-1c0.2-0.4,0.4-0.9,0.5-1.3c0.1-0.3,0.3-0.7,0.4-1
			c1,0.6,1.5,1.5,1.8,2.6h5.7c0,0,0,0,0,0c1.1,0,2.3,0,3.4,0c0.7,0,0.9,0.3,0.8,0.8c0,0.1,0,0.2-0.1,0.2c0,0.1-0.1,0.2-0.1,0.3
			c0,0,0,0,0,0c0,0,0,0.1,0,0.1c-0.3,0.6-0.7,0.8-1.6,0.8c-2.8,0-5.7,0-8.5,0c-0.4,0-0.6,0.1-0.8,0.5c0,0,0,0,0,0
			c-1,2.5-2,5-3.1,7.5c-0.1,0.2-0.1,0.4-0.2,0.6c0.7,0,1.3,0,1.9,0c0.9,0,1.7,0,2.6,0c0.2,0,0.4,0,0.6,0c0,0,0,0,0,0c0,0,0,0,0,0
			c0,0,0,0,0,0c0,0,0.1,0,0.1,0c0,0,0,0,0.1,0c0.2,0,0.4-0.1,0.5-0.3c0-0.1,0.1-0.1,0.1-0.2c0.5-1.2,1-2.4,1.5-3.6
			c0.2-0.5,0.5-1.1,0.7-1.6c0.6,0,1.1,0,1.7,0c0.5,0,1,0,1.5,0c0.7,0,1,0.5,1,1.2c0,0.4-0.1,0.8-0.1,1.2c-0.1,1-0.2,2.1-0.3,3.1
			c0,0.1,0,0.1,0,0.2h0c0,0,0,0,0,0h5.8c0-0.1,0-0.2,0-0.3c0-1.7,0-3.3,0-5c0-0.6-0.3-1-0.9-1.2c-0.2-0.1-0.3-0.2-0.5-0.3
			C140.3,44.9,140.3,44.9,140.3,44.8C140.3,44.8,140.3,44.8,140.3,44.8z"/>
		<path class="st2" d="M86.6,45.2c-0.1,0-0.2-0.1-0.3-0.1c0,0,0-0.1-0.1-0.2c0,0,0,0,0,0c0.4-0.1,0.8-0.2,1.2-0.4c0,0,0,0,0.1,0
			c0.5-0.1,1-0.3,1.4-0.6c0.3-0.2,0.5-0.3,0.8-0.6c0.1-0.1,0.2-0.2,0.3-0.4c0.2-0.3,0.4-0.5,0.6-0.9c0.5-1,1.1-2,1.7-2.9
			c0.2-0.3,0.4-0.6,0.6-1c0,0,0,0,0,0c0.1-0.1,0.2-0.3,0.3-0.5c0,0,0-0.1,0.1-0.1c0,0,0,0,0,0c0,0,0,0,0,0c-1.8,0-3.4,0-5.1,0
			c0,0-0.1,0-0.1,0c-0.3,0-0.6,0.1-0.7,0.4c0,0,0,0,0,0c-0.4,0.6-0.8,1.3-1.2,1.9c-0.2,0.3-0.4,0.6-0.6,0.9s-0.4,0.6-0.6,1
			c0,0-0.1,0.1-0.1,0.1c-0.2,0.3-0.5,0.6-0.8,0.8C83.6,43,83.4,43,83.1,43c-1.4,0.1-2.8,0-4.2,0c0.2-0.4,0.4-0.9,0.5-1.3
			c0.5-1.3,1.1-2.7,1.6-4c0,0,0,0,0,0c0,0,0,0,0,0c-1.8,0-3.4,0-5.1,0c0,0,0,0,0,0c0,0,0,0,0,0c-0.5,0-0.7,0.2-0.9,0.6
			c-0.4,0.9-0.7,1.8-1.1,2.8c-1,2.4-1.9,4.7-2.9,7.1c-0.5,1.2-1,2.4-1.5,3.6c1.1,0,2.2,0,3.3,0c0.6,0,1.3,0,1.9,0c0,0,0,0,0,0
			c0,0,0,0,0,0c0.4,0,0.6-0.2,0.7-0.5c0,0,0,0,0,0c0.3-0.8,0.7-1.6,1-2.4c0.3-0.8,0.7-1.6,1-2.4c0,0,0-0.1,0.1-0.1c0,0,0,0,0,0
			c0,0,0-0.1,0.1-0.1c0.1-0.2,0.3-0.2,0.6-0.2c0.2,0,0.4,0,0.6,0c0.6,0,1.3,0,1.9,0c0.4,0,0.7,0,0.9,0.1c0.1,0,0.2,0.1,0.2,0.1
			c0,0,0.1,0.1,0.1,0.1c0.1,0.1,0.1,0.1,0.1,0.2c0,0.1,0.1,0.2,0.1,0.3c0,0.1,0,0.2,0,0.3c0,0.1,0,0.3,0,0.4c-0.1,1-0.2,2.1-0.3,3.1
			c0,0.3-0.1,0.7-0.1,1h5.8c0-0.4,0-0.8,0-1.2c0-0.8,0-1.5,0-2.2c0-0.4,0-0.8,0-1.2c0-0.1,0-0.1,0-0.2
			C87.5,46.2,87.3,45.5,86.6,45.2z"/>
		<path class="st2" d="M69.7,42.4c-2.1,0-4.2,0-6.3,0c-0.1,0-0.4,0.1-0.4,0.2c-0.2,0.4-0.3,0.7-0.5,1.1c-0.4,1-0.8,2-1.3,3.1H62
			c1.3,0,2.6,0,3.9,0c0.3,0,0.7,0,1,0c0,0,0,0,0,0c0.4,0,0.6,0.1,0.7,0.6c0.2,0.8,0.6,1.5,0.9,2.2c0,0,0,0,0,0.1c0,0,0,0,0,0
			c0.1,0,0.1,0,0.2,0c0,0,0,0,0,0c0,0,0,0,0,0c0.2-0.6,0.5-1.2,0.7-1.8c0.7-1.8,1.5-3.6,2.2-5.5C71.1,42.4,70.4,42.4,69.7,42.4z"/>
		<path class="st2" d="M180.8,36.2c-0.3,0-0.5,0-0.8,0C180.3,36.2,180.5,36.2,180.8,36.2c2.3,0,4.2,2,3.6,4.2
			C184.9,38.3,183.1,36.2,180.8,36.2z"/>
		<path class="st2" d="M116.4,53c-0.7,0.2-1.5,0.2-2.2,0.2c-1.6,0-3.1,0-4.7,0c1.6,0,3.1,0,4.7,0C115,53.3,115.7,53.2,116.4,53
			c2.6-0.5,4.9-1.6,7-3.6c0,0,0,0,0,0C121.4,51.4,119,52.5,116.4,53z"/>
		<path class="st2" d="M66.5,48.9c-0.1-0.5-0.4-0.5-0.8-0.5c-2,0-4,0-6,0c-0.2,0-0.4,0-0.7,0c0,0,0,0,0,0c0,0,0,0,0,0
			c0.1-0.2,0.1-0.3,0.2-0.4c0,0,0-0.1,0-0.1c0.2-0.4,0.4-0.9,0.5-1.3c0.6-1.5,1.3-3.1,1.9-4.6c0.3-0.7,0.7-0.9,1.4-0.9
			c0.1,0,0.2,0,0.2,0c2.4,0,4.9,0,7.3,0c0.1,0,0.2,0,0.3-0.1c0.1,0,0.2-0.1,0.3-0.2c0.4-0.9,0.8-1.9,1.2-3h-0.8c-4,0-8,0-12,0
			c-1.5,0-2.2,0.5-2.7,1.8c-1.3,3.1-2.6,6.3-3.9,9.4c0,0,0,0,0,0c-0.1,0.2-0.2,0.5-0.2,0.8c0,1.2,0.9,2.1,2.2,2.1c0.6,0,1.2,0,1.9,0
			c3.2,0,6.4,0,9.6,0c0.6,0,1.2,0,1.8,0c0.1,0,0.3,0,0.5,0c0,0,0,0,0,0C67.7,51,66.9,50.1,66.5,48.9z"/>
		<path class="st2" d="M151.2,49.1c-0.6,1.2-1.2,2.5-1.8,3.7C150,51.5,150.6,50.3,151.2,49.1c0.4-0.9,0.6-1.3,1-1.5
			C151.8,47.8,151.6,48.2,151.2,49.1z"/>
		<path class="st2" d="M178.7,47.5C178.7,47.5,178.7,47.5,178.7,47.5c1.3,0,2.4-0.5,3.2-1.6C181.2,47,180,47.5,178.7,47.5z"/>
		<path class="st2" d="M171.2,48c-0.6,1.4-1.2,2.9-1.8,4.3C170,50.9,170.6,49.5,171.2,48c0.1-0.4,0.3-0.5,0.7-0.5
			C171.5,47.5,171.3,47.7,171.2,48z"/>
		<path class="st2" d="M133,48c-0.7,1.6-1.4,3.2-2,4.9c-0.1,0.3-0.2,0.5-0.6,0.5c0,0,0,0,0,0c0.4,0,0.5-0.2,0.6-0.5
			C131.6,51.2,132.3,49.6,133,48c0.1-0.2,0.3-0.4,0.4-0.4c0.1,0,0.3,0,0.4,0c-0.1,0-0.3,0-0.4,0C133.2,47.6,133,47.8,133,48z"/>
		<path class="st2" d="M51,50.2c-0.2-0.3-0.3-0.5-0.5-0.8c-0.1-0.2-0.1-0.3-0.2-0.6c0,0,0-0.1,0-0.1c0-0.1,0-0.1-0.1-0.2
			c0-0.1-0.1-0.1-0.1-0.2c-0.1-0.1-0.3-0.1-0.5-0.1c-2.6,0-5.2,0-7.8,0c-0.1,0-0.2,0-0.3,0s-0.2,0-0.4,0c0,0,0,0,0,0
			c0.2-0.6,0.5-1.1,0.6-1.7c0.1-0.5,0.4-0.6,0.9-0.6c2.3,0,4.6,0,6.9,0c0.2,0,0.5-0.1,0.6-0.2c0,0,0,0,0,0c0.4-0.9,0.7-1.8,1-2.7h0
			h0h-7.9c0.1-0.2,0.2-0.4,0.2-0.6c0.1-0.4,0.3-0.7,0.4-1c0-0.1,0-0.1,0.1-0.1c0.1-0.3,0.4-0.4,0.8-0.4c1.3,0,2.7,0,4,0c0,0,0,0,0,0
			c0,0,0,0,0,0c1.3,0,2.7,0,4,0c1.6,0,1.6,0,2.2-1.5c0-0.1,0.1-0.1,0.1-0.2c0-0.1,0.1-0.2,0.1-0.3c0.1-0.2,0.2-0.5,0.3-0.7
			c0.1-0.2,0.1-0.3,0.2-0.5H39.3c0.1-0.3,0.2-0.6,0.4-0.9c0.3-0.7,0.5-1.4,0.8-2c0,0,0,0,0,0c0,0,0,0,0,0c-0.1,0-0.2-0.1-0.2-0.1
			c-5.7,0-11.3,0-17,0c-1.1,0-2.3,0-3.4,0c0,0,0,0,0,0c-0.2,0-0.4,0.2-0.5,0.4c0,0,0,0,0,0.1c-0.2,0.4-0.4,0.8-0.5,1.3
			c-0.1,0.3-0.3,0.6-0.4,0.9c-0.2,0.4-0.3,0.7-0.5,1.1c0,0,0,0.1,0,0.1c0,0.1-0.1,0.2-0.1,0.4h7.5c-0.4,1-0.8,2-1.2,2.9
			c-0.1,0.4-0.3,0.7-0.4,1.1c-0.8,2-1.6,4-2.4,6c-0.4,1-0.8,2-1.2,3c0,0,0,0,0,0c0,0,0,0,0,0c1.6,0,3.1,0,4.6,0c0.5,0,1.1,0,1.6,0
			c0,0,0,0,0,0c0,0,0,0,0,0c0.5,0,0.7-0.1,0.9-0.6c1.6-3.9,3.2-7.9,4.8-11.8c0.2-0.5,0.4-0.6,0.9-0.6c0.6,0,1.3,0,1.9,0s1.3,0,1.9,0
			c0.1,0,0.1,0,0.2,0c1,0.2,1.8,1.5,1.4,2.4c-1,2.4-2,4.8-2.9,7.2c-0.4,0.9-0.7,1.7-1.1,2.6c-0.1,0.2-0.2,0.4-0.3,0.7h18.7h0
			C51.8,51,51.3,50.6,51,50.2z"/>
		<path class="st2" d="M143.3,47.1c1-1.5,1.5-3.2,2.8-4.3c0.1-0.1,0.2-0.2,0.3-0.2h0h0c0,0-0.1-0.1-0.1-0.1
			c-0.2-0.3-0.4-0.6-0.5-0.9c0,0,0,0,0,0c-0.1,0.2-0.2,0.4-0.2,0.6c-0.2,0.4-0.4,0.9-0.6,1.3c-0.4,0.8-0.9,1.6-1.7,2.1c0,0,0,0,0,0
			c0,0-0.1,0.1-0.1,0.1c0,0,0,0.1,0,0.1c0,0,0,0,0,0c0,0,0,0,0,0C143.1,46.3,143.2,46.7,143.3,47.1c-0.1,0.1-0.1,0.1-0.1,0.1
			c0,0,0,0,0,0v0C143.3,47.2,143.3,47.2,143.3,47.1z"/>
		<path class="st2" d="M53.1,42.5c0,0-0.1,0.1-0.1,0.1c0,0-0.1,0.1-0.1,0.2c0,0,0,0.1-0.1,0.2c0,0.1-0.1,0.2-0.1,0.3
			c-0.4,1.1-0.8,2.1-1.2,3.2c-0.1,0.3-0.1,0.6,0,0.9c0.1,0.2,0.2,0.5,0.3,0.8c0,0,0,0,0,0c0,0,0,0,0,0c0.8-2,1.5-3.8,2.3-5.6
			c0,0,0,0,0,0C53.5,42.4,53.2,42.4,53.1,42.5C53.1,42.5,53.1,42.5,53.1,42.5z"/>
		<path class="st2" d="M181,35.7c-7.3,0-14.7,0-22,0c-9.4,0-18.8,0-28.2,0h-0.6c0-0.1,0-0.1,0-0.2c0.2-0.6,0.5-1.2,0.7-1.7
			c0.3-0.8,0.1-1.1-0.8-1.1c-3.1,0-6.2,0-9.2,0c-0.6,0-0.9,0.2-1.1,0.8c-1.5,3.7-3,7.4-4.5,11.1c-0.3,0.9-0.9,1.2-2,1
			c0.1-0.2,0.1-0.4,0.2-0.6c1.5-3.7,3-7.4,4.6-11.1c0.4-1,0.3-1.2-0.8-1.2c-3,0-6,0-9.1,0c-0.6,0-0.9,0.2-1.2,0.8
			c-1.5,3.8-3.1,7.6-4.7,11.4c-0.2,0.5-0.5,0.8-1.1,0.6c0.1-0.2,0.2-0.4,0.2-0.6c1.5-3.7,3.1-7.4,4.6-11.2c0.4-0.9,0.3-1.1-0.7-1.1
			c-3.2,0-6.5,0-9.7,0c-0.3,0-0.6-0.1-0.8-0.3c-1.9-2.7-3.9-5.3-5.7-8c-0.6-0.8-1.2-1.5-2.2-1.9c-1.7-0.6-3.3-1.2-5.1-1.7
			c-1.1-0.3-2.3-0.4-3.5-0.6h-5.7c-0.1,0-0.2,0.1-0.3,0.1c-1.5,0.3-2.9,0.6-4.4,1c-1.4,0.5-2.7,1.2-3.9,1.8c-0.5,0.3-0.5,0.6,0,0.9
			c0.2,0.2,0.5,0.3,0.8,0.5c3.3,1.8,6.3,4,8.6,7c0.3,0.4,0.6,0.7,0.9,1.1c-1.1,0.1-2.1,0.3-3.1,0.4c-4.3,0.4-8.5,1.1-12.8,1.9
			c-1.5,0.3-3.1,0.7-4.7,0.7c-3.6,0.1-7.3,0-10.9,0c-0.2,0-0.4,0-0.6,0c0.3-0.7,0.6-1.4,0.8-2.1c0.3-0.7,0.1-0.9-0.6-0.9
			c-2.2,0-4.5,0-6.7,0c-5.6,0-11.2,0-16.8,0c-0.5,0-0.8,0.2-1,0.6c-0.9,2.2-1.8,4.4-2.7,6.5c-0.3,0.8-0.2,1,0.6,1c1.9,0,3.9,0,5.8,0
			c0.2,0,0.4,0,0.7,0c-0.1,0.3-0.2,0.5-0.3,0.7c-1.5,3.7-3.1,7.5-4.6,11.2c-0.3,0.7-0.1,1,0.6,1c3.1,0,6.3,0,9.4,0
			c0.5,0,0.8-0.2,1-0.7c0.3-0.8,0.6-1.5,0.9-2.2c1.3-3.2,2.6-6.4,3.9-9.5c0.1-0.2,0.3-0.5,0.5-0.5c0.8-0.1,1.6,0,2.4,0
			c-0.1,0.3-0.1,0.4-0.2,0.6c-1,2.5-2.1,5-3.1,7.6c-0.5,1.3-1.1,2.6-1.6,3.9c-0.2,0.6-0.1,0.9,0.6,0.9c0.2,0,0.3,0,0.5,0
			c11.5,0,22.9,0,34.4,0c0.4,0,0.8,0.1,1.2,0.3c2.3,1.2,4.7,1.8,7.3,1.7c2.7-0.1,5.4-0.7,8-1.5c1.3-0.4,2.6-0.6,4-0.6
			c5,0,9.9,0,14.9,0c1,0,1.9-0.2,2.8-0.6c0.2-0.1,0.5-0.1,0.7,0c0.8,0.4,1.6,0.6,2.4,0.6c1.8,0,3.7,0,5.5,0c2.6,0,5.1-0.6,7.4-1.9
			c0.3-0.2,0.7-0.4,1.1-0.7c-0.2,0.6-0.4,1-0.6,1.5c-0.3,0.8-0.2,1.1,0.7,1.1c2.7,0,5.4,0,8.1,0c0.6,0,0.8-0.2,1-0.7
			c0.6-1.6,1.3-3.1,1.9-4.7c0.2-0.5,0.4-0.6,0.9-0.4c-0.2,1.6-0.4,3.1-0.6,4.7c-0.1,0.8,0.1,1,0.8,1c4.8,0,9.6,0,14.4,0
			c0.5,0,0.7-0.2,0.9-0.6c0.7-1.5,1.5-3.1,2.2-4.6c0.3-0.6,0.6-0.7,1.2-0.5c-0.6,1.6-1.3,3.1-1.9,4.7c-0.3,0.8-0.2,1,0.7,1
			c5.5,0,11.1,0,16.6,0c0.6,0,0.9-0.2,1.1-0.7c0.6-1.5,1.3-3,1.8-4.5c0.2-0.5,0.4-0.6,0.9-0.6c2.1,0,4.3,0,6.4,0
			c1.6,0,2.9-0.7,3.7-2c0.9-1.7,1.8-3.5,2.4-5.4C185.6,38.3,183.5,35.7,181,35.7z M73.9,31.1c-2.3-3.2-5.5-5.3-8.9-7.2
			c-0.1,0-0.2-0.1-0.3-0.2c-0.1,0-0.1-0.1-0.2-0.1c0,0,0,0,0,0c0.4-0.2,0.7-0.4,0.9-0.6c0,0,0,0,0,0c0.1-0.1,0.3-0.1,0.4-0.2
			c3.8-1.8,7.8-2.3,12-2c2.6,0.2,5.1,0.7,7.6,1.6c0.5,0.2,0.9,0.4,1.3,0.6c0.2,0.1,0.4,0.2,0.6,0.3c0.4,0.3,0.8,0.6,1,1c0,0,0,0,0,0
			c0,0,0,0.1,0.1,0.1c0.2,0.3,0.3,0.5,0.3,0.8c0,0,0,0,0,0c0,0.1,0,0.2,0.1,0.3c0,0.1,0,0.2,0,0.3c0,0,0,0,0,0
			c0,0.8-0.3,1.6-0.8,2.3c-0.9,1.1-2.1,1.8-3.4,2.4c-2.3,1-4.8,1.3-7.3,1.8C75.8,32.7,74.8,32.3,73.9,31.1z M184.4,40.4
			c-0.1,0.2-0.1,0.5-0.2,0.7c-0.5,1.7-1.2,3.4-2.3,4.8c-0.8,1.1-1.9,1.6-3.2,1.6c0,0,0,0,0,0c0,0,0,0,0,0c-2.2,0-4.5,0-6.7,0
			c-0.1,0-0.1,0-0.1,0c-0.3,0-0.5,0.1-0.7,0.5c-0.6,1.4-1.2,2.9-1.8,4.3c-0.1,0.2-0.1,0.3-0.2,0.5c0,0.1,0,0.1-0.1,0.2
			c0,0.1-0.1,0.1-0.1,0.1c-0.1,0.1-0.3,0.2-0.5,0.2c-5.4,0-10.9,0-16.3,0c-0.1,0-0.3,0-0.5,0c0.3-0.8,0.6-1.5,0.9-2.3
			c0.5-1.1,0.9-2.3,1.4-3.4c-0.9-0.1-1.4-0.1-1.7,0c-0.4,0.2-0.6,0.6-1,1.5c-0.6,1.2-1.2,2.5-1.8,3.7c0,0,0,0,0,0.1
			c-0.1,0.3-0.3,0.5-0.7,0.5c-2.4,0-4.7,0-7.1,0c-2.3,0-4.7,0-7,0c0,0,0,0,0,0c-0.1,0-0.3,0-0.5,0c0.2-1.9,0.4-3.8,0.6-5.7
			c-0.1,0-0.2,0-0.4,0c-0.2,0-0.4,0-0.6,0c-0.1,0-0.3,0-0.4,0c-0.2,0-0.3,0.2-0.4,0.4c-0.7,1.6-1.4,3.2-2,4.9
			c-0.1,0.3-0.2,0.5-0.6,0.5c0,0,0,0,0,0c0,0,0,0,0,0c-0.2,0-0.4,0-0.6,0c-2.5,0-5.1,0-7.6,0c0,0,0,0,0,0c0,0-0.1,0-0.2-0.1
			c0.5-1.2,1-2.5,1.5-3.8c-2,2-4.4,3.1-7,3.6c-0.7,0.2-1.5,0.2-2.2,0.2c-1.6,0-3.1,0-4.7,0c-0.3,0-0.5,0-0.8,0c-0.3,0-0.5,0-0.8,0
			c0,0,0,0,0,0c-0.9,0-1.6-0.3-2.3-0.7c0,0-0.1,0-0.1-0.1c-0.2,0-0.4,0-0.5,0c-0.9,0.6-1.9,0.8-3,0.8c-3.7,0-7.3,0-11,0
			c-3.6,0-7.2,0-10.8,0h-0.8c0-0.5,0.1-1,0.1-1.5c0,0,0-0.1,0-0.1c0-0.1,0-0.3,0-0.4c0.1-1,0.2-2.1,0.3-3.1c0-0.3,0-0.7-0.4-0.7
			c-0.1,0-0.1,0-0.2,0c-0.1,0-0.1,0-0.2,0c0,0-0.1,0-0.1,0c-0.2,0-0.4,0.1-0.6,0.4c-0.6,1.6-1.4,3.2-2,4.9c-0.1,0.3-0.3,0.5-0.6,0.5
			c-0.1,0-0.1,0-0.2,0c-5.5,0-10.9,0-16.4,0c0,0,0,0,0,0c-9,0-17.9,0-26.9,0h0h-0.7c0,0,0-0.1,0.1-0.1c0.7-1.8,1.4-3.4,2.1-5.1
			c0.9-2.3,1.9-4.6,2.8-6.8c0.1-0.2,0.1-0.3,0.1-0.4c0-0.3-0.2-0.5-0.7-0.5c-0.6,0-1.1,0-1.7,0c-0.2,0-0.4,0-0.6,0
			c-0.1,0-0.1,0-0.2,0c-0.1,0-0.1,0-0.2,0c-0.1,0-0.1,0-0.1,0.1c-0.1,0-0.1,0.1-0.1,0.1c0,0,0,0,0,0c-0.1,0.1-0.2,0.2-0.2,0.4
			c-1.6,3.9-3.2,7.9-4.8,11.8c-0.1,0.3-0.3,0.5-0.6,0.6c-0.1,0-0.2,0-0.3,0c-1.5,0-2.9,0-4.4,0c-1.5,0-2.9,0-4.4,0h0h-0.6
			c1.8-4.3,3.5-8.5,5.2-12.7c0-0.1,0.1-0.1,0.1-0.2h-7.6c0.1-0.2,0.1-0.3,0.1-0.4c0,0,0-0.1,0-0.1c0.9-2,1.7-4.1,2.6-6.2
			c0.1-0.2,0.2-0.4,0.3-0.4c0.1,0,0.2-0.1,0.4-0.1c7.7,0,15.5,0,23.2,0c0.1,0,0.2,0,0.4,0c-0.1,0.3-0.2,0.6-0.4,0.9
			c-0.2,0.4-0.3,0.9-0.5,1.3c-0.1,0.3-0.2,0.5-0.3,0.8h0.8c3.6,0,7.1,0,10.7,0c1.2,0,2.4,0,3.6,0c0.1,0,0.1,0,0.2,0
			c2.1,0,4.1-0.1,6.2,0c2.2,0,4.3,0,6.5,0h6.4h6.5h0.9h0c-0.7,1.8-1.5,3.6-2.2,5.4c0.1,0,0.1,0,0.2,0c0,0,0,0,0,0c0,0,0,0,0,0
			c1.3,0.2,2.2-0.2,2.7-1.5c0.6-1.2,1.3-2.2,2-3.4c0,0,0.1-0.1,0.1-0.1c0.2-0.3,0.4-0.5,0.7-0.5c0.1,0,0.1,0,0.2,0
			c0.4,0,0.7,0,1.1,0c0.4,0,0.8,0,1.3,0c0.8,0,1.6,0,2.5,0c-0.1-0.1-0.2-0.2-0.3-0.2c-1.5-1.1-3.1-1.9-4.6-2.8h18.7h0
			c-1.8,4.3-3.5,8.6-5.3,13c0.6-0.1,1.1,0,1.6-0.2c0,0,0,0,0,0c0,0,0.1,0,0.1,0c0.3-0.1,0.5-0.5,0.7-0.8c1.6-3.8,3.2-7.6,4.7-11.4
			c0.1-0.4,0.3-0.5,0.6-0.6c0.1,0,0.1,0,0.2,0c0,0,0.1,0,0.1,0c1.5,0,3,0,4.6,0c0,0,0,0,0.1,0c0,0,0,0,0,0c1.5,0,3.1,0,4.7,0l0,0
			c0,0,0,0,0,0c-1.7,4.2-3.5,8.4-5.2,12.7c0,0.1-0.1,0.2-0.1,0.3c0.1,0,0.2,0,0.3,0c0.1,0,0.2,0,0.4,0c0.7,0,1.3-0.1,1.9-0.4
			c0.3-0.2,0.5-0.5,0.7-0.8c1.6-3.7,3.1-7.5,4.6-11.2c0.1-0.3,0.2-0.4,0.4-0.5c0.1,0,0.2-0.1,0.4-0.1c0,0,0.1,0,0.1,0
			c0.7,0,1.4,0,2.1,0c0.6,0,1.2,0,1.8,0c1.2,0,2.4,0,3.6,0c0.6,0,1.2,0,1.9,0c-0.4,1-0.8,2-1.2,3c0,0,0,0,0,0c0.2,0,0.4,0,0.6,0
			c0,0,0,0,0,0c9.7,0,19.5,0,29.2,0c7,0,13.9,0,20.9,0c0.3,0,0.5,0,0.8,0C183.1,36.2,184.9,38.3,184.4,40.4z"/>
	</g>
	<path class="st2" d="M141.7,46.5c0-0.6-0.3-1-0.9-1.2c-0.2-0.1-0.3-0.2-0.5-0.3c0,0,0,0,0,0c0-0.1,0-0.1,0-0.2c0,0,0,0,0,0
		c0,0,0,0,0,0c0.1,0,0.2,0,0.3,0c0.1,0,0.2,0,0.3,0c0,0,0,0,0,0c0.8,0,1.5-0.2,2-0.8c0.1-0.1,0.2-0.3,0.3-0.4c0-0.1,0.1-0.1,0.1-0.2
		c0-0.1,0.1-0.1,0.1-0.2c0.3-0.6,0.6-1.2,0.8-1.9c0.1-0.4,0.3-0.7,0.4-1.1c0,0,0,0,0-0.1c0.1-0.2,0-0.4,0-0.6
		c-0.1-0.7-0.6-1.2-1.2-1.5c-0.1-0.1-0.3-0.1-0.5-0.2c-0.2,0-0.4-0.1-0.7-0.1c-1.6,0-3.2,0-4.9,0c-3.2,0-6.5,0-9.7,0H127h0
		c0-0.1,0-0.1,0.1-0.2c0.2-0.5,0.4-0.9,0.6-1.4c0.2-0.5,0.4-1,0.6-1.5c0,0,0,0,0,0c-1.8,0-3.5,0-5.1,0c-0.4,0-0.7,0-1.1,0
		c0,0,0,0,0,0c0,0,0,0-0.1,0c0,0-0.1,0-0.1,0c0,0-0.1,0-0.1,0c0,0,0,0-0.1,0c0,0,0,0-0.1,0c0,0-0.1,0-0.1,0
		c-0.2,0.1-0.3,0.3-0.4,0.5c-0.7,1.7-1.4,3.3-2,5c-0.6,1.4-1.1,2.8-1.7,4.2c-0.2,0.4-0.3,0.7-0.5,1.1c0,0,0,0,0,0.1
		c-0.4,0.9-1,1.5-1.8,1.7c-0.1,0-0.3,0.1-0.4,0.1c0,0-0.1,0-0.1,0c-1.4,0.2-2.8,0.2-4.4,0.3c0,0-0.1,0-0.1,0h0
		c1.4-3.5,2.8-6.9,4.2-10.3c0.2-0.6,0.5-1.1,0.7-1.7c0.2-0.4,0.3-0.7,0.5-1.1c0,0,0,0,0,0c-0.8,0-1.5,0-2.2,0c-1.3,0-2.6,0-3.9,0
		c-0.2,0-0.3,0-0.5,0.1c-0.2,0.1-0.3,0.2-0.4,0.5c-1.1,2.7-2.2,5.4-3.3,8.2c-0.3,0.8-0.7,1.7-1,2.5c-0.1,0.3-0.3,0.6-0.4,0.8
		c0,0,0,0,0,0.1c0,0,0,0,0,0c-0.1,0.2-0.3,0.3-0.4,0.4c-0.2,0.2-0.5,0.3-0.9,0.3c-1.3,0.2-2.7,0.2-4.1,0.2c1.2-3,2.5-6,3.7-8.9
		c0.6-1.4,1.1-2.7,1.7-4.1c0,0,0,0,0,0H92.3c0,0,0,0,0,0c0.3,0.2,0.4,0.3,0.6,0.4c0,0,0,0,0,0c0.2,0.2,0.5,0.3,0.7,0.5
		c0.6,0.6,1.1,1.2,1.3,2.1c0.1,0.4,0.1,0.8,0,1.2c0,0.1,0,0.1-0.1,0.2C94.4,40.1,94,41,93.7,42c-1.3,3.1-2.5,6.1-3.8,9.2
		c-0.1,0.2-0.2,0.4-0.3,0.7h0.8c1.7,0,3.5,0,5.2,0c0,0,0,0,0.1,0c0,0,0,0,0.1,0c1.7,0,3.5,0,5.2,0c0.7,0,1.3,0,1.9-0.1
		c1-0.2,1.9-0.6,2.6-1.7c0.6,1.3,1.5,1.8,2.8,1.8c0,0,0,0,0.1,0c0.1,0,0.2,0,0.3,0c1.7,0,3.3,0,5,0c2.2,0,4.3-0.6,6.3-1.5
		c0,0,0.1,0,0.1-0.1c0.3-0.2,0.6-0.4,0.9-0.6c0.1,0,0.1-0.1,0.2-0.1c0.1,0,0.1-0.1,0.2-0.1c0.1-0.1,0.2-0.2,0.3-0.3
		c0.8-0.7,1.4-1.6,1.8-2.7c0.3-0.7,0.5-1.5,0.8-2.2c0.4-0.9,0.7-1.7,1.1-2.6c0.1-0.3,0.3-0.7,0.4-1c0.2-0.4,0.4-0.9,0.5-1.3
		c0.1-0.3,0.3-0.7,0.4-1c1,0.6,1.5,1.5,1.8,2.6h5.7l0,0c0,0,0,0,0,0c1.1,0,2.3,0,3.4,0c0.7,0,0.9,0.3,0.8,0.8c0,0.1,0,0.2-0.1,0.2
		c0,0.1-0.1,0.2-0.1,0.3c0,0,0,0,0,0c0,0,0,0.1,0,0.1c-0.3,0.6-0.7,0.8-1.6,0.8c-2.8,0-5.7,0-8.5,0c-0.4,0-0.6,0.1-0.8,0.5
		c0,0,0,0,0,0c-1,2.5-2,5-3.1,7.5c-0.1,0.2-0.1,0.4-0.2,0.6c0.7,0,1.3,0,1.9,0c0.9,0,1.7,0,2.6,0c0.2,0,0.4,0,0.6,0c0,0,0,0,0,0
		c0,0,0,0,0,0c0,0,0.1,0,0.1,0c0,0,0,0,0.1,0c0.2,0,0.4-0.1,0.5-0.3c0-0.1,0.1-0.1,0.1-0.2c0.5-1.2,1-2.4,1.5-3.6
		c0.2-0.5,0.5-1.1,0.7-1.6c0.6,0,1.1,0,1.7,0c0.5,0,1,0,1.5,0c0.7,0,1,0.5,1,1.2c0,0.4-0.1,0.8-0.1,1.2c-0.1,1-0.2,2.1-0.3,3.1
		c0,0.1,0,0.1,0,0.2h0h5.8c0-0.1,0-0.2,0-0.3C141.7,49.8,141.6,48.1,141.7,46.5z"/>
	<path class="st2" d="M51,50.2c-0.2-0.3-0.3-0.5-0.5-0.8c-0.1-0.2-0.1-0.3-0.2-0.6c0,0,0-0.1,0-0.1c0-0.1,0-0.1-0.1-0.2
		c0-0.1-0.1-0.1-0.1-0.2c-0.1-0.1-0.3-0.1-0.5-0.1c-2.6,0-5.2,0-7.8,0c-0.1,0-0.2,0-0.3,0s-0.2,0-0.4,0l0,0c0,0,0,0,0,0
		c0.2-0.6,0.5-1.1,0.6-1.7c0.1-0.5,0.4-0.6,0.9-0.6c2.3,0,4.6,0,6.9,0c0.2,0,0.5-0.1,0.6-0.2c0,0,0,0,0,0c0.4-0.9,0.7-1.8,1-2.7h0
		h-7.9l0,0c0.1-0.2,0.2-0.4,0.2-0.6c0.1-0.4,0.3-0.7,0.4-1c0-0.1,0-0.1,0.1-0.1c0.1-0.3,0.4-0.4,0.8-0.4c1.3,0,2.7,0,4,0
		c0,0,0,0,0,0c0,0,0,0,0,0c1.3,0,2.7,0,4,0c1.6,0,1.6,0,2.2-1.5c0-0.1,0.1-0.1,0.1-0.2c0-0.1,0.1-0.2,0.1-0.3
		c0.1-0.2,0.2-0.5,0.3-0.7c0.1-0.2,0.1-0.3,0.2-0.5H39.3h0c0.1-0.3,0.2-0.6,0.4-0.9c0.3-0.7,0.5-1.3,0.8-2c0,0,0,0,0,0
		c-0.1,0-0.2-0.1-0.2-0.1c-5.7,0-11.3,0-17,0c-1.1,0-2.3,0-3.4,0c0,0,0,0,0,0c-0.2,0-0.4,0.2-0.5,0.4c0,0,0,0,0,0.1
		c-0.2,0.4-0.4,0.8-0.5,1.3c-0.1,0.3-0.3,0.6-0.4,0.9c-0.2,0.4-0.3,0.7-0.5,1.1c0,0,0,0.1,0,0.1c0,0.1-0.1,0.2-0.1,0.4l0,0h7.5
		c-0.4,1-0.8,2-1.2,2.9c-0.1,0.4-0.3,0.7-0.4,1.1c-0.8,2-1.6,4-2.4,6c-0.4,1-0.8,2-1.2,3c0,0,0,0,0,0c1.6,0,3.1,0,4.6,0
		c0.5,0,1.1,0,1.6,0c0,0,0,0,0,0c0.5,0,0.7-0.1,0.9-0.6c1.6-3.9,3.2-7.9,4.8-11.8c0.2-0.5,0.4-0.6,0.9-0.6c0.6,0,1.3,0,1.9,0
		c0.6,0,1.3,0,1.9,0c0.1,0,0.1,0,0.2,0c1,0.2,1.8,1.5,1.4,2.4c-1,2.4-2,4.8-2.9,7.2c-0.4,0.9-0.7,1.7-1.1,2.6
		c-0.1,0.2-0.2,0.4-0.3,0.7h18.7h0C51.8,51,51.3,50.6,51,50.2z"/>
	<path class="st2" d="M154.2,51.8c1.7,0,3.4,0,5,0c0.2,0,0.4-0.2,0.5-0.4c1.5-3.6,3-7.2,4.4-10.8c0.1-0.1,0.1-0.3,0.1-0.5
		c0-0.2,0-0.3,0-0.5c0,0,0,0,0,0c-0.1-0.4-0.3-0.8-0.5-1.1c0,0,0,0,0,0c-0.1-0.1-0.2-0.2-0.3-0.2c-0.4-0.3-1-0.5-1.6-0.5
		c-2.6,0-5.3,0-7.9,0c-2.6,0-5.3,0-7.9,0h-0.5l0,0c0.2,0.2,0.5,0.4,0.6,0.6c0.5,0.6,0.8,1.4,1,2.2c0.1,0.4,0.3,0.5,0.6,0.5
		c2.3,0,4.7,0,7,0c0.9,0,1.7,0,2.6,0c0.5,0,0.7,0.2,0.7,0.6c0,0.1,0,0.2-0.1,0.4c0,0,0,0,0,0c-0.1,0.2-0.2,0.4-0.3,0.6
		c-0.3,0.5-0.7,0.7-1.5,0.7c-2.3,0-4.5,0-6.8,0c-1.3,0-2.3,0.5-2.9,1.5c-0.6,0.9-1.1,1.9-1.6,2.9c-0.3,0.5-0.6,1-0.8,1.5
		c-0.5,0.9-1,1.8-1.5,2.7c0,0,0,0,0,0c1.9,0,3.6,0,5.2,0c0.4,0,0.6-0.1,0.8-0.5c0.7-1.5,1.4-2.9,2.1-4.4c0,0,0-0.1,0.1-0.1
		c0,0,0-0.1,0.1-0.1c0.1-0.1,0.2-0.2,0.3-0.3c0.1-0.1,0.3-0.2,0.4-0.2c1.6-0.1,3.1,0,4.8,0c0,0,0,0,0,0c-0.8,1.9-1.5,3.8-2.3,5.7
		c0,0,0,0,0,0C154,51.8,154.1,51.8,154.2,51.8z"/>
	<path class="st2" d="M86.6,45.2c-0.1,0-0.2-0.1-0.3-0.1c0,0,0-0.1-0.1-0.2l0,0c0,0,0,0,0,0c0.4-0.1,0.8-0.2,1.2-0.4c0,0,0,0,0.1,0
		c0.5-0.1,1-0.3,1.4-0.6c0.3-0.2,0.5-0.3,0.8-0.6c0.1-0.1,0.2-0.2,0.3-0.4c0.2-0.3,0.4-0.5,0.6-0.9c0.5-1,1.1-2,1.7-2.9
		c0.2-0.3,0.4-0.6,0.6-1c0,0,0,0,0,0c0.1-0.1,0.2-0.3,0.3-0.5c0,0,0-0.1,0.1-0.1c0,0,0,0,0,0c-1.8,0-3.4,0-5.1,0c0,0-0.1,0-0.1,0
		c-0.3,0-0.6,0.1-0.7,0.4c0,0,0,0,0,0c-0.4,0.6-0.8,1.3-1.2,1.9c-0.2,0.3-0.4,0.6-0.6,0.9s-0.4,0.6-0.6,1c0,0-0.1,0.1-0.1,0.1
		c-0.2,0.3-0.5,0.6-0.8,0.8C83.6,43,83.4,43,83.1,43c-1.4,0.1-2.8,0-4.2,0c0.2-0.4,0.4-0.9,0.5-1.3c0.5-1.3,1.1-2.7,1.6-4
		c0,0,0,0,0,0c-1.8,0-3.4,0-5.1,0c0,0,0,0,0,0c0,0,0,0,0,0c-0.5,0-0.7,0.2-0.9,0.6c-0.4,0.9-0.7,1.8-1.1,2.8c-1,2.4-1.9,4.7-2.9,7.1
		c-0.5,1.2-1,2.4-1.5,3.6l0,0c1.1,0,2.2,0,3.3,0c0.6,0,1.3,0,1.9,0l0,0c0,0,0,0,0,0c0.4,0,0.6-0.2,0.7-0.5c0,0,0,0,0,0
		c0.3-0.8,0.7-1.6,1-2.4c0.3-0.8,0.7-1.6,1-2.4c0,0,0-0.1,0.1-0.1c0,0,0,0,0,0c0,0,0-0.1,0.1-0.1c0.1-0.2,0.3-0.2,0.6-0.2
		c0.2,0,0.4,0,0.6,0c0.6,0,1.3,0,1.9,0c0.4,0,0.7,0,0.9,0.1c0.1,0,0.2,0.1,0.2,0.1c0,0,0.1,0.1,0.1,0.1c0.1,0.1,0.1,0.1,0.1,0.2
		c0,0.1,0.1,0.2,0.1,0.3c0,0.1,0,0.2,0,0.3c0,0.1,0,0.3,0,0.4c-0.1,1-0.2,2.1-0.3,3.1c0,0.3-0.1,0.7-0.1,1l0,0h5.8
		c0-0.4,0-0.8,0-1.2c0-0.8,0-1.5,0-2.2c0-0.4,0-0.8,0-1.2c0-0.1,0-0.1,0-0.2C87.5,46.2,87.3,45.5,86.6,45.2z"/>
	<path class="st2" d="M181.1,44.5c0.6-1.3,1.2-2.7,1.8-4.1c0.1-0.2,0.1-0.5,0.1-0.7c0-0.9-0.7-1.7-1.6-1.9c-0.2-0.1-0.4-0.1-0.7-0.1
		c-5.3,0-10.7,0-16,0c0,0,0,0,0,0c-0.1,0-0.2,0-0.4,0.1c0,0,0,0,0,0l0,0c1.3,0.7,2.2,1.6,2.6,3c0,0,0,0,0,0l0,0
		c0,0.1,0.3,0.2,0.5,0.2c0.5,0,1.1,0,1.6,0c0.7,0,1.3,0,2,0c0.4,0,0.8,0,1.2,0c1,0,2,0,3,0c0.3,0,0.6,0,0.9,0c0.5,0,0.8,0.2,0.8,0.6
		c0,0.1,0,0.3-0.1,0.4c-0.2,0.6-0.4,0.9-0.8,1.1c-0.2,0.1-0.5,0.1-0.9,0.1c-2.8,0-5.6,0-8.4,0c-0.1,0-0.1,0-0.2,0
		c-0.4,0-0.5,0.2-0.7,0.5c0,0,0,0.1,0,0.1c0,0,0,0,0,0c-0.9,2.2-1.8,4.5-2.7,6.7c-0.2,0.4-0.3,0.8-0.5,1.3l0,0c0.1,0,0.1,0,0.2,0
		c0.1,0,0.2,0,0.2,0c0,0,0.1,0,0.1,0c1.5,0,3.1,0,4.6,0c0.4,0,0.6-0.1,0.8-0.5c0.6-1.6,1.3-3.1,1.9-4.7c0.2-0.4,0.4-0.6,0.8-0.5
		c2.1,0,4.2,0,6.3,0c0.4,0,0.8,0,1.3,0c0.1,0,0.2,0,0.4,0C179.9,45.9,180.7,45.4,181.1,44.5z"/>
	<path class="st2" d="M66.5,51.8c0.6,0,1.2,0,1.8,0c0.1,0,0.3,0,0.5,0c0,0,0,0,0,0c-1.1-0.8-2-1.7-2.3-2.9c-0.1-0.5-0.4-0.5-0.8-0.5
		c-2,0-4,0-6,0c-0.2,0-0.4,0-0.7,0c0,0,0,0,0,0c0,0,0,0,0,0c0.1-0.2,0.1-0.3,0.2-0.4c0,0,0-0.1,0-0.1c0.2-0.4,0.4-0.9,0.5-1.3
		c0.6-1.5,1.3-3.1,1.9-4.6c0.3-0.7,0.7-0.9,1.4-0.9c0.1,0,0.2,0,0.2,0c2.4,0,4.9,0,7.3,0c0.1,0,0.2,0,0.3-0.1c0.1,0,0.2-0.1,0.3-0.2
		c0.4-0.9,0.8-1.9,1.2-3h-0.8c-4,0-8,0-12,0c-1.5,0-2.2,0.5-2.7,1.8c-1.3,3.1-2.6,6.3-3.9,9.4c0,0,0,0,0,0c-0.1,0.2-0.2,0.5-0.2,0.8
		c0,1.2,0.9,2.1,2.2,2.1c0.6,0,1.2,0,1.9,0C60.1,51.8,63.3,51.8,66.5,51.8z"/>
	<path class="st2" d="M69.7,42.4c-2.1,0-4.2,0-6.3,0c-0.1,0-0.4,0.1-0.4,0.2c-0.2,0.4-0.3,0.7-0.5,1.1c-0.4,1-0.8,2-1.3,3.1H62
		c1.3,0,2.6,0,3.9,0c0.3,0,0.7,0,1,0c0,0,0,0,0,0c0.4,0,0.6,0.1,0.7,0.6c0.2,0.8,0.6,1.5,0.9,2.2c0,0,0,0,0,0.1c0,0,0,0,0,0
		c0.1,0,0.1,0,0.2,0c0,0,0,0,0,0c0.2-0.6,0.5-1.2,0.7-1.8c0.7-1.8,1.5-3.6,2.2-5.5C71.1,42.4,70.4,42.4,69.7,42.4z"/>
	<path class="st2" d="M53.1,42.5C53.1,42.5,53.1,42.5,53.1,42.5c0,0-0.1,0.1-0.1,0.1c0,0-0.1,0.1-0.1,0.2c0,0,0,0.1-0.1,0.2
		c0,0.1-0.1,0.2-0.1,0.3c-0.4,1.1-0.8,2.1-1.2,3.2c-0.1,0.3-0.1,0.6,0,0.9c0.1,0.2,0.2,0.5,0.3,0.8c0,0,0,0,0,0c0,0,0,0,0,0
		c0.8-2,1.5-3.8,2.3-5.6c0,0,0,0,0,0C53.5,42.4,53.2,42.4,53.1,42.5z"/>
	<path class="st2" d="M145.8,41.6C145.8,41.6,145.8,41.6,145.8,41.6c-0.1,0.2-0.2,0.4-0.2,0.6c-0.2,0.4-0.4,0.9-0.6,1.3
		c-0.4,0.8-0.9,1.6-1.7,2.1c0,0,0,0,0,0c0,0-0.1,0.1-0.1,0.1c0,0,0,0.1,0,0.1c0,0,0,0,0,0c0,0,0,0,0,0c0,0.4,0.1,0.8,0.1,1.4
		c0,0,0,0,0,0v0c0,0,0-0.1,0.1-0.1c1-1.5,1.5-3.2,2.8-4.3c0.1-0.1,0.2-0.2,0.3-0.2h0c0,0-0.1-0.1-0.1-0.1
		C146.1,42.2,146,41.9,145.8,41.6z"/>
	<path class="st2" d="M90.5,45.8c0.1-0.1,0.1-0.3,0.2-0.4c0.1-0.2,0.2-0.4,0.3-0.7h0c-0.6,0.2-1.1,0.4-1.6,0.6
		c-0.2,0.1-0.4,0.1-0.5,0.2h0c0.4,0.3,0.5,0.6,0.6,0.9c0,0.1,0,0.2,0.1,0.2c0,0.1,0,0.1,0,0.2c0,0.1,0,0.2,0,0.3
		c0,0.2,0,0.5,0.1,0.7c0,0,0,0.1,0,0.1v0c0.1-0.3,0.2-0.5,0.3-0.8C90.1,46.7,90.3,46.2,90.5,45.8z"/>
	<path class="st2" d="M78.8,31c0-0.1-0.1-0.1-0.1-0.2c-2.2-2.8-4.3-5.7-6.5-8.5c-0.3-0.3-0.5-0.6-0.8-0.6c0,0,0,0,0,0
		c-0.2,0-0.4,0-0.6,0.2h0c0.1,0.1,0.2,0.3,0.3,0.4c2.2,2.9,4.5,5.8,6.6,8.8c0.2,0.3,0.4,0.4,0.7,0.5c0.2,0,0.4,0,0.7-0.1
		c0-0.1-0.1-0.1-0.1-0.2C78.9,31.2,78.9,31.1,78.8,31z"/>
	<path class="st2" d="M74.6,22c-0.4-0.6-0.9-0.6-1.5-0.4c0,0,0,0,0,0c0.1,0.2,0.2,0.3,0.3,0.4c2.2,2.9,4.3,5.7,6.4,8.6
		c0.4,0.5,0.7,0.8,1.4,0.4c0,0,0,0,0,0c-0.1-0.1-0.2-0.3-0.3-0.4C78.9,27.7,76.7,24.9,74.6,22z"/>
	<path class="st2" d="M76,30.7c-2.1-2.6-4.1-5.2-6.1-7.8c-0.1-0.1-0.1-0.1-0.2-0.2c-0.3-0.4-0.7-0.4-1.2-0.1c0,0,0,0,0,0
		c0.1,0.1,0.2,0.3,0.3,0.4c2.2,2.8,4.4,5.5,6.6,8.3c0.4,0.5,0.8,0.7,1.5,0.5c0,0,0,0,0,0c-0.1-0.2-0.2-0.4-0.4-0.5
		C76.3,31,76.2,30.9,76,30.7z"/>
	<path class="st2" d="M77.5,22.1c-0.4-0.6-0.9-0.7-1.5-0.6c0,0,0,0,0,0c0.1,0.2,0.2,0.4,0.3,0.5c2,2.7,3.9,5.4,5.9,8.1
		c0.5,0.6,0.5,0.7,1.3,0.2c0,0,0,0,0,0c-0.1-0.2-0.2-0.3-0.3-0.5C81.2,27.3,79.3,24.7,77.5,22.1z"/>
	<path class="st2" d="M85,29c-0.6-0.8-1.2-1.6-1.7-2.4c-1-1.4-1.9-2.7-2.9-4.1c-0.4-0.6-0.9-0.8-1.7-0.8c0,0,0,0,0,0
		c0.1,0.2,0.2,0.3,0.3,0.4c0,0,0,0,0,0c1.7,2.4,3.4,4.8,5.1,7.2c0,0.1,0.1,0.1,0.1,0.2c0.2,0.2,0.3,0.4,0.4,0.4
		c0.2,0,0.3-0.1,0.7-0.4l0,0C85.2,29.3,85.1,29.1,85,29z"/>
	<path class="st2" d="M87.1,28.3C87.1,28.3,87.1,28.2,87.1,28.3c-1.2-1.7-2.5-3.4-3.6-5.1c-0.4-0.7-1-0.9-1.9-1c0,0,0,0,0,0
		c1.6,2.3,3.2,4.5,4.8,6.8c0.1-0.1,0.2-0.2,0.3-0.2C86.8,28.5,87,28.4,87.1,28.3C87.1,28.3,87.1,28.3,87.1,28.3z"/>
	<path class="st2" d="M86.4,24C86.4,24,86.4,24,86.4,24c0-0.1-0.1-0.1-0.1-0.1c-0.4-0.5-0.9-0.7-1.6-0.9c0,0,0,0,0,0
		c1.1,1.5,2,2.9,3,4.4c0.2-0.4,0.3-0.6,0.3-0.8c0-0.2-0.1-0.3-0.3-0.6C87.3,25.3,86.8,24.7,86.4,24z"/>
	<path class="st2" d="M66.4,23.5c0.5,0.4,1,0.8,1.4,1.1c0.5,0.4,0.9,0.7,1.4,1.1c0-0.1,0.1-0.1,0.1-0.2c-0.5-0.7-1.1-1.3-1.6-2
		c-0.2-0.2-0.3-0.4-0.5-0.4c-0.2-0.1-0.4,0-0.7,0.2C66.5,23.4,66.4,23.4,66.4,23.5z"/>
</g>
</svg>
